<?xml version="1.0" encoding="iso-8859-1"?>
<!-- Generator: Adobe Illustrator 19.0.0, SVG Export Plug-In . SVG Version: 6.00 Build 0)  -->
<svg version="1.1" id="Layer_1" xmlns="http://www.w3.org/2000/svg" xmlns:xlink="http://www.w3.org/1999/xlink" x="0px" y="0px"
	 viewBox="0 0 512 512" style="enable-background:new 0 0 512 512;" xml:space="preserve">
<polygon style="fill:#F2F2F2;" points="10.199,256 145.828,120.371 145.828,202.004 501.801,202.004 501.801,309.996 
	145.828,309.996 145.828,391.629 "/>
<g>
	<path style="fill:#4D4D4D;" d="M145.831,401.828c-2.655,0-5.263-1.036-7.214-2.987L2.987,263.212
		c-3.983-3.983-3.983-10.441,0-14.425l135.629-135.629c2.916-2.917,7.304-3.787,11.115-2.211c3.81,1.579,6.296,5.297,6.296,9.423
		v71.434h345.773c5.632,0,10.199,4.567,10.199,10.199v107.992c0,5.632-4.567,10.199-10.199,10.199H156.027v71.434
		c0,4.126-2.486,7.844-6.296,9.423C148.471,401.574,147.145,401.828,145.831,401.828z M24.624,256L135.63,367.007v-57.01
		c0-5.632,4.567-10.199,10.199-10.199h345.772v-87.594H145.828c-5.632,0-10.199-4.567-10.199-10.199v-57.01L24.624,256z"/>
	<path style="fill:#4D4D4D;" d="M467.439,287.617H362.852c-5.632,0-10.199-4.567-10.199-10.199c0-5.632,4.567-10.199,10.199-10.199
		h104.588c5.632,0,10.199,4.567,10.199,10.199C477.639,283.05,473.071,287.617,467.439,287.617z"/>
	<path style="fill:#4D4D4D;" d="M329.75,287.617h-6.436c-5.632,0-10.199-4.567-10.199-10.199c0-5.632,4.567-10.199,10.199-10.199
		h6.436c5.632,0,10.199,4.567,10.199,10.199C339.949,283.05,335.382,287.617,329.75,287.617z"/>
</g>
<g>
</g>
<g>
</g>
<g>
</g>
<g>
</g>
<g>
</g>
<g>
</g>
<g>
</g>
<g>
</g>
<g>
</g>
<g>
</g>
<g>
</g>
<g>
</g>
<g>
</g>
<g>
</g>
<g>
</g>
</svg>
