<?xml version="1.0" encoding="iso-8859-1"?>
<!-- Generator: Adobe Illustrator 19.0.0, SVG Export Plug-In . SVG Version: 6.00 Build 0)  -->
<svg version="1.1" id="Layer_1" xmlns="http://www.w3.org/2000/svg" xmlns:xlink="http://www.w3.org/1999/xlink" x="0px" y="0px"
	 viewBox="0 0 512 512" style="enable-background:new 0 0 512 512;" xml:space="preserve">
<polygon style="fill:#F2F2F2;" points="501.801,256 366.172,120.371 366.172,202.004 10.199,202.004 10.199,309.995 
	366.172,309.995 366.172,391.629 "/>
<g>
	<path style="fill:#4D4D4D;" d="M366.17,401.829c-1.314,0-2.639-0.254-3.9-0.777c-3.811-1.579-6.296-5.297-6.296-9.423v-71.434
		H10.199C4.566,320.195,0,315.628,0,309.995V202.004c0-5.633,4.566-10.199,10.199-10.199h345.773v-71.434
		c0-4.125,2.486-7.844,6.296-9.423c3.81-1.579,8.198-0.707,11.115,2.21l135.629,135.629c3.983,3.983,3.983,10.441,0,14.425
		L373.384,398.841C371.433,400.792,368.824,401.829,366.17,401.829z M20.398,299.797h345.773c5.633,0,10.199,4.566,10.199,10.199
		v57.009L487.377,256L376.371,144.994v57.009c0,5.633-4.566,10.199-10.199,10.199H20.398V299.797z"/>
	<path style="fill:#4D4D4D;" d="M149.149,287.617H44.56c-5.633,0-10.199-4.566-10.199-10.199s4.566-10.199,10.199-10.199h104.588
		c5.633,0,10.199,4.566,10.199,10.199S154.782,287.617,149.149,287.617z"/>
	<path style="fill:#4D4D4D;" d="M188.685,287.617h-6.436c-5.633,0-10.199-4.566-10.199-10.199s4.566-10.199,10.199-10.199h6.436
		c5.633,0,10.199,4.566,10.199,10.199S194.318,287.617,188.685,287.617z"/>
</g>
<g>
</g>
<g>
</g>
<g>
</g>
<g>
</g>
<g>
</g>
<g>
</g>
<g>
</g>
<g>
</g>
<g>
</g>
<g>
</g>
<g>
</g>
<g>
</g>
<g>
</g>
<g>
</g>
<g>
</g>
</svg>
