<?xml version="1.0" encoding="iso-8859-1"?>
<!-- Generator: Adobe Illustrator 19.0.0, SVG Export Plug-In . SVG Version: 6.00 Build 0)  -->
<svg version="1.1" id="Capa_1" xmlns="http://www.w3.org/2000/svg" xmlns:xlink="http://www.w3.org/1999/xlink" x="0px" y="0px"
	 viewBox="0 0 512 512" style="enable-background:new 0 0 512 512;" xml:space="preserve">
<path style="fill:#F9A462;" d="M139.555,29.428H83.408c-40.289,0-73.86,32.966-73.404,73.253
	c0.172,15.173,5.009,29.221,13.137,40.779c8.287,11.771,19.988,20.959,33.67,26.133v282.596c0,16.781,13.603,30.384,30.384,30.384
	h26.767"/>
<path style="fill:#F7CD95;" d="M501.999,101.843c0,30.978-19.448,57.411-46.812,67.75v282.596c0,16.781-13.603,30.384-30.384,30.384
	h-310.84v-312.98c-13.682-5.175-25.383-14.363-33.66-26.133c-8.287-11.77-13.152-26.123-13.152-41.617
	c0-39.996,32.419-72.415,72.404-72.415h290.039c19.998,0,38.094,8.107,51.196,21.209C493.892,63.739,501.999,81.845,501.999,101.843
	z"/>
<path style="fill:#EF5352;" d="M384.782,112.635L384.782,112.635c-16.667,0-30.502,12.122-33.17,28.031V126.44
	c0-18.576-15.059-33.635-33.635-33.635l0,0c-18.576,0-33.635,15.059-33.635,33.635v51.034c-2.668-15.909-16.503-28.031-33.17-28.031
	l0,0c-16.667,0-30.502,12.122-33.17,28.031v-20.011c0-18.576-15.059-33.635-33.635-33.635l0,0
	c-18.576,0-33.635,15.059-33.635,33.635v236.435c0,18.576,15.059,33.635,33.635,33.635l0,0c16.667,0,30.502-12.122,33.17-28.031
	v20.011c0,18.576,15.059,33.635,33.635,33.635l0,0c18.576,0,33.635-15.059,33.635-33.635V348.46
	c2.668,15.909,16.503,28.031,33.17,28.031l0,0c16.667,0,30.502-12.122,33.17-28.031v34.245c0,18.576,15.059,33.635,33.635,33.635
	l0,0c18.576,0,33.635-15.059,33.635-33.635V146.27C418.417,127.694,403.358,112.635,384.782,112.635z"/>
<path d="M487.862,43.566c-15.567-15.565-36.26-24.138-58.268-24.138H83.408c-22.496,0-43.654,8.869-59.576,24.973
	C8.218,60.192-0.243,80.93,0.005,102.795c0.189,16.722,5.361,32.772,14.96,46.422c8.209,11.659,19.125,20.882,31.846,26.968v276.004
	c0,22.268,18.116,40.384,40.385,40.384h337.607c22.268,0,40.384-18.116,40.384-40.384V176.18
	C493.453,162.602,512,133.562,512,101.843C511.999,79.828,503.427,59.132,487.862,43.566z M66.811,452.189V169.593
	c0-4.158-2.573-7.882-6.462-9.354c-11.737-4.439-21.775-12.232-29.027-22.532c-7.261-10.325-11.175-22.476-11.318-35.14
	c-0.187-16.48,6.224-32.144,18.05-44.105C50.19,46.189,66.296,39.428,83.408,39.428h2.391
	c-17.532,15.125-28.648,37.496-28.648,62.415c0,17.078,5.178,33.459,14.972,47.37c8.199,11.66,19.114,20.885,31.84,26.973v296.388
	H87.196C75.956,472.573,66.811,463.429,66.811,452.189z M451.653,160.239c-3.892,1.47-6.466,5.195-6.466,9.354v282.596
	c0,11.24-9.145,20.384-20.384,20.384H123.962v-302.98c0-4.158-2.573-7.882-6.462-9.354c-11.74-4.44-21.775-12.232-29.021-22.537
	c-7.411-10.526-11.328-22.926-11.328-35.86c0-34.415,27.994-62.415,62.404-62.415h290.039c16.666,0,32.337,6.492,44.125,18.28
	s18.28,27.462,18.28,44.135C491.999,127.653,475.785,151.12,451.653,160.239z"/>
<path d="M384.782,102.635c-9.668,0-18.661,3.122-25.942,8.49c-6.216-16.528-22.188-28.32-40.862-28.32
	c-24.06,0-43.635,19.574-43.635,43.635v19.609c-6.739-4.207-14.695-6.606-23.17-6.606c-9.023,0-17.46,2.72-24.465,7.447
	c-4.738-18.968-21.925-33.062-42.34-33.062c-24.061,0-43.635,19.574-43.635,43.635v236.435c0,24.06,19.574,43.635,43.635,43.635
	c9.024,0,17.46-2.72,24.465-7.447c4.738,18.968,21.925,33.061,42.34,33.061c24.061,0,43.635-19.575,43.635-43.635v-39.629
	c6.739,4.207,14.696,6.607,23.17,6.607s16.431-2.399,23.17-6.606v2.82c0,24.061,19.574,43.635,43.635,43.635
	s43.636-19.575,43.636-43.635V146.27C428.417,122.21,408.842,102.635,384.782,102.635z M408.417,382.704
	c0,13.033-10.603,23.635-23.636,23.635c-13.032,0-23.635-10.603-23.635-23.635v-34.245c0-5.201-3.987-9.534-9.17-9.965
	c-5.197-0.432-9.832,3.181-10.692,8.312c-1.913,11.406-11.715,19.685-23.308,19.685c-11.592,0-21.395-8.279-23.308-19.686
	c-0.861-5.128-5.506-8.742-10.692-8.311c-5.184,0.432-9.17,4.764-9.17,9.965v71.053c0,13.032-10.603,23.635-23.635,23.635
	s-23.635-10.603-23.635-23.635l0.001-165.216c0-5.523-4.478-10-10-10s-10,4.477-10,10v144.293
	c-2.205,11.021-11.831,18.942-23.171,18.942c-13.032,0-23.635-10.603-23.635-23.635V157.463c0-13.032,10.603-23.635,23.635-23.635
	s23.635,10.603,23.635,23.635v20.011c0,5.201,3.986,9.534,9.17,9.965c5.167,0.431,9.832-3.181,10.692-8.311
	c1.913-11.406,11.716-19.685,23.308-19.685c11.593,0,21.395,8.279,23.308,19.685c0.86,5.129,5.517,8.747,10.692,8.311
	c5.183-0.432,9.17-4.764,9.17-9.965V126.44c0-13.032,10.603-23.635,23.635-23.635c13.033,0,23.636,10.603,23.636,23.635
	l0.002,147.544c0,5.523,4.478,10,10,10c5.523,0,10-4.477,10-10V141.563c2.211-11.014,11.833-18.928,23.167-18.928
	c13.033,0,23.636,10.602,23.636,23.635L408.417,382.704L408.417,382.704z"/>
<circle cx="217.54" cy="215.261" r="10"/>
<circle cx="351.61" cy="313.021" r="10"/>
<g>
</g>
<g>
</g>
<g>
</g>
<g>
</g>
<g>
</g>
<g>
</g>
<g>
</g>
<g>
</g>
<g>
</g>
<g>
</g>
<g>
</g>
<g>
</g>
<g>
</g>
<g>
</g>
<g>
</g>
</svg>
