<?xml version="1.0" encoding="iso-8859-1"?>
<!-- Generator: Adobe Illustrator 19.0.0, SVG Export Plug-In . SVG Version: 6.00 Build 0)  -->
<svg version="1.1" id="Capa_1" xmlns="http://www.w3.org/2000/svg" xmlns:xlink="http://www.w3.org/1999/xlink" x="0px" y="0px"
	 viewBox="0 0 512 512" style="enable-background:new 0 0 512 512;" xml:space="preserve">
<path style="fill:#FEA832;" d="M316.25,56h-123l103,400h126c22.09,0,40-17.91,40-40V235.15c25.02-18.9,40-42.95,40-69.15
	C502.25,105.25,415.66,56,316.25,56z"/>
<path style="fill:#FFC478;" d="M376.25,166c0,26.2-14.98,50.25-40,69.15V416c0,22.09-17.91,40-40,40h-206c-22.09,0-40-17.91-40-40
	V235.15c-25.02-18.9-40-42.95-40-69.15c0-60.75,83.59-110,183-110S376.25,105.25,376.25,166z"/>
<path d="M200.07,198.22c3.91-3.91,3.91-10.24,0-14.14c-3.9-3.91-10.24-3.91-14.14,0c-3.91,3.9-3.91,10.23,0,14.14
	C189.83,202.12,196.17,202.12,200.07,198.22z"/>
<path d="M185.93,353.78c-3.91,3.91-3.91,10.24,0,14.14c3.9,3.91,10.24,3.91,14.14,0c3.91-3.9,3.91-10.23,0-14.14
	C196.17,349.88,189.83,349.88,185.93,353.78z"/>
<path d="M442,156c-5.522,0-10,4.478-10,10c0,32.157-12.895,62.883-37.289,88.854c-1.741,1.854-2.711,4.303-2.711,6.847V416
	c0,5.522,4.478,10,10,10s10-4.478,10-10V265.597c26.186-29.13,40-63.484,40-99.597C452,160.478,447.522,156,442,156z"/>
<path d="M171.791,226.501c3.905-3.905,3.905-10.237,0-14.143c-3.906-3.904-10.236-3.904-14.143,0l-42.43,42.431
	c-3.905,3.905-3.905,10.237,0,14.143c3.907,3.905,10.236,3.904,14.143,0L171.791,226.501z"/>
<path d="M256.639,283.068l-42.43,42.431c-3.905,3.905-3.905,10.237,0,14.143c3.907,3.905,10.236,3.904,14.143,0l42.43-42.431
	c3.905-3.905,3.905-10.237,0-14.143C266.875,279.164,260.545,279.164,256.639,283.068z"/>
<path d="M256.642,212.358c-3.906-3.904-10.236-3.904-14.143,0L129.358,325.499c-3.905,3.905-3.905,10.237,0,14.143
	c3.907,3.905,10.236,3.904,14.143,0l113.141-113.141C260.547,222.596,260.547,216.264,256.642,212.358z"/>
<path d="M451.323,79.584C414.253,57.927,366.193,46,316,46H183c-0.75,0-1.479,0.089-2.182,0.246C80.052,50.168,0,102.376,0,166
	c0,26.966,14.162,53.092,40,74.022V416c0,27.57,22.43,50,50,50h206h126c27.57,0,50-22.43,50-50V240.022
	c25.838-20.931,40-47.057,40-74.022C512,133.133,490.451,102.443,451.323,79.584z M326,235.15V416c0,16.542-13.458,30-30,30H90
	c-16.542,0-30-13.458-30-30V235.15c0-3.136-1.471-6.089-3.973-7.979C39.592,214.755,20,194.064,20,166c0-54.206,79.225-100,173-100
	s173,45.794,173,100c0,28.064-19.592,48.755-36.027,61.171C327.471,229.062,326,232.015,326,235.15z M455.973,227.171
	c-2.502,1.891-3.973,4.844-3.973,7.979V416c0,16.542-13.458,30-30,30h-86.027c6.292-8.363,10.027-18.752,10.027-30V240.022
	c25.838-20.931,40-47.057,40-74.022c0-41.694-34.384-78.484-86.441-100H316c46.025,0,91.672,11.245,125.234,30.854
	C473.971,115.979,492,140.535,492,166C492,194.064,472.408,214.755,455.973,227.171z"/>
<g>
</g>
<g>
</g>
<g>
</g>
<g>
</g>
<g>
</g>
<g>
</g>
<g>
</g>
<g>
</g>
<g>
</g>
<g>
</g>
<g>
</g>
<g>
</g>
<g>
</g>
<g>
</g>
<g>
</g>
</svg>
