<svg id="Capa_1" enable-background="new 0 0 512 512" height="512" viewBox="0 0 512 512" width="512" xmlns="http://www.w3.org/2000/svg"><path clip-rule="evenodd" d="m33.564 203.256c0 47.22 27.298 88.067 66.971 107.612l29.762 115.628h251.405l29.762-115.628c39.673-19.545 66.971-60.392 66.971-107.612 0-63.536-49.386-115.515-111.855-119.594-17.217-41.13-56.72-70.618-103.388-73.394h-14.385c-46.668 2.776-86.143 32.264-103.388 73.394-62.469 4.08-111.855 56.058-111.855 119.594z" fill="#faf7f5" fill-rule="evenodd"/><path clip-rule="evenodd" d="m130.297 501.929h251.405c8.835 0 16.056-7.223 16.056-16.061v-43.311c0-8.838-7.221-16.061-16.056-16.061h-251.405c-8.835 0-16.056 7.223-16.056 16.061v43.311c0 8.838 7.221 16.061 16.056 16.061z" fill="#ebddd9" fill-rule="evenodd"/><path d="m488.507 203.256c0-66.209-50.122-121.774-115.194-129.1-20.908-43.811-65.632-74.156-117.313-74.156-51.682 0-96.407 30.346-117.314 74.158-65.074 7.339-115.193 62.897-115.193 129.098 0 49.393 27.706 92.433 68.391 114.402l26.204 101.806c-8.27 4.392-13.917 13.093-13.917 23.093v43.311c0 14.409 11.72 26.132 26.127 26.132h251.405c14.407 0 26.128-11.723 26.128-26.132v-43.311c0-10-5.648-18.702-13.919-23.093l26.202-101.796c40.684-21.966 68.393-65.011 68.393-114.412zm-114.612 213.17h-112.996c-5.562 0-10.071 4.509-10.071 10.071s4.509 10.071 10.071 10.071h120.771c.013 0 .026.002.039.002.008 0 .015-.001.022-.001 3.287.016 5.956 2.696 5.956 5.989v43.311c0 3.303-2.685 5.99-5.986 5.99h-251.404c-3.3 0-5.985-2.687-5.985-5.99v-43.311c0-3.293 2.669-5.972 5.956-5.989.008 0 .015.001.023.001.013 0 .026-.002.039-.002h40.859c5.562 0 10.071-4.509 10.071-10.071s-4.509-10.071-10.071-10.071h-33.084l-22.905-88.986c12.084 3.726 24.914 5.736 38.204 5.736 5.562 0 10.071-4.509 10.071-10.071s-4.509-10.071-10.071-10.071c-60.527 0-109.77-49.246-109.77-109.778 0-52.388 37.135-96.886 87.004-107.417-2.96 10.875-4.55 22.308-4.55 34.109 0 5.562 4.509 10.071 10.071 10.071s10.071-4.509 10.071-10.071c0-60.548 49.243-109.806 109.77-109.806s109.769 49.259 109.769 109.806c0 5.562 4.509 10.071 10.071 10.071s10.071-4.509 10.071-10.071c0-11.802-1.59-23.238-4.552-34.114 49.867 10.522 87.004 55.026 87.004 107.422 0 60.532-49.229 109.778-109.741 109.778-5.562 0-10.071 4.509-10.071 10.071s4.509 10.071 10.071 10.071c13.28 0 26.099-2.008 38.174-5.729z"/><path d="m257.67 151.461c-5.562 0-10.071 4.509-10.071 10.071v121.775c0 5.562 4.509 10.071 10.071 10.071s10.071-4.509 10.071-10.071v-121.775c0-5.562-4.509-10.071-10.071-10.071z"/><path d="m354.682 155.185c-2.785-4.814-8.944-6.459-13.761-3.674-4.814 2.785-6.459 8.946-3.674 13.761 16.767 28.98 7.238 61.359-32.888 111.762-3.465 4.351-2.745 10.687 1.606 14.152 1.854 1.476 4.067 2.192 6.266 2.192 2.963 0 5.898-1.301 7.885-3.799 21.774-27.349 34.796-49.367 40.978-69.288 7.343-23.66 5.246-44.956-6.412-65.106z"/><path d="m167.163 165.272c2.785-4.814 1.141-10.975-3.674-13.761-4.812-2.784-10.975-1.14-13.761 3.674-11.658 20.149-13.755 41.446-6.413 65.106 6.182 19.922 19.203 41.938 40.977 69.288 1.989 2.498 4.923 3.799 7.885 3.799 2.199 0 4.413-.717 6.266-2.192 4.352-3.464 5.071-9.8 1.606-14.152-40.125-50.402-49.654-82.782-32.886-111.762z"/><path d="m257.67 106.563c-5.562 0-10.071 4.509-10.071 10.071v.057c0 5.562 4.509 10.043 10.071 10.043s10.071-4.537 10.071-10.099-4.509-10.072-10.071-10.072z"/><path d="m216.043 416.426h-.057c-5.562 0-10.043 4.509-10.043 10.071s4.537 10.071 10.099 10.071 10.071-4.509 10.071-10.071c.001-5.563-4.508-10.071-10.07-10.071z"/></svg>