<svg height="512pt" viewBox="0 0 512 512.00087" width="512pt" xmlns="http://www.w3.org/2000/svg"><path d="m197.742188 16.480469-181.261719 181.261719c-8.660157 8.660156-8.660157 22.703124 0 31.367187l266.394531 266.394531c8.664062 8.660156 22.707031 8.660156 31.367188 0l181.261718-181.261718c8.664063-8.660157 8.664063-22.707032 0-31.367188l-266.394531-266.394531c-8.660156-8.660157-22.703125-8.660157-31.367187 0zm0 0" fill="#cf8670"/><path d="m79.457031 238.996094c3.902344-3.90625 3.902344-10.234375 0-14.140625l-8.773437-8.773438 8.773437-8.769531c3.902344-3.90625 3.902344-10.234375 0-14.140625-3.90625-3.90625-10.238281-3.90625-14.144531 0l-15.839844 15.839844c-3.90625 3.90625-3.90625 10.238281 0 14.144531l15.839844 15.839844c1.953125 1.953125 4.511719 2.929687 7.070312 2.929687 2.558594 0 5.121094-.976562 7.074219-2.929687zm0 0"/><path d="m120.636719 151.988281 15.84375 15.839844c1.953125 1.953125 4.511719 2.929687 7.070312 2.929687 2.558594 0 5.117188-.976562 7.070313-2.929687 3.90625-3.902344 3.90625-10.234375 0-14.140625l-8.769532-8.769531 8.769532-8.769531c3.90625-3.90625 3.90625-10.238282 0-14.144532-3.902344-3.90625-10.234375-3.902344-14.140625 0l-15.84375 15.84375c-3.902344 3.902344-3.902344 10.234375 0 14.140625zm0 0"/><path d="m191.804688 80.820312 15.84375 15.84375c1.953124 1.953126 4.511718 2.925782 7.070312 2.925782s5.117188-.972656 7.070312-2.925782c3.90625-3.90625 3.90625-10.238281 0-14.144531l-8.773437-8.769531 8.773437-8.769531c3.90625-3.90625 3.90625-10.238281 0-14.144531s-10.238281-3.902344-14.140624 0l-15.84375 15.84375c-3.90625 3.90625-3.90625 10.234374 0 14.140624zm0 0"/><path d="m142.957031 288.359375 8.773438-8.773437c3.902343-3.902344 3.902343-10.234376 0-14.140626-3.90625-3.902343-10.238281-3.902343-14.144531 0l-15.839844 15.839844c-3.90625 3.90625-3.90625 10.238282 0 14.144532l15.839844 15.839843c1.953124 1.953125 4.511718 2.929688 7.070312 2.929688 2.5625 0 5.121094-.976563 7.074219-2.929688 3.902343-3.902343 3.902343-10.234375 0-14.140625zm0 0"/><path d="m192.914062 224.261719 15.839844 15.84375c1.953125 1.953125 4.511719 2.925781 7.074219 2.925781 2.558594 0 5.117187-.972656 7.070313-2.925781 3.902343-3.90625 3.902343-10.238281 0-14.144531l-8.773438-8.769532 8.773438-8.769531c3.902343-3.90625 3.902343-10.238281 0-14.144531-3.90625-3.90625-10.238282-3.902344-14.144532 0l-15.839844 15.84375c-3.90625 3.902344-3.90625 10.234375 0 14.140625zm0 0"/><path d="m294.0625 123.113281c-3.902344-3.90625-10.234375-3.90625-14.140625 0l-15.84375 15.839844c-3.902344 3.90625-3.902344 10.238281 0 14.144531l15.84375 15.839844c1.953125 1.953125 4.511719 2.929688 7.070313 2.929688 2.558593 0 5.117187-.976563 7.070312-2.929688 3.90625-3.90625 3.90625-10.234375 0-14.140625l-8.773438-8.773437 8.773438-8.769532c3.90625-3.90625 3.90625-10.238281 0-14.140625zm0 0"/><path d="m215.230469 360.632812 8.773437-8.773437c3.90625-3.902344 3.90625-10.234375 0-14.140625-3.90625-3.902344-10.238281-3.902344-14.140625 0l-15.84375 15.84375c-3.90625 3.902344-3.90625 10.234375 0 14.140625l15.84375 15.84375c1.953125 1.949219 4.511719 2.925781 7.070313 2.925781s5.117187-.976562 7.070312-2.925781c3.902344-3.90625 3.902344-10.238281 0-14.144531zm0 0"/><path d="m295.171875 266.554688c-3.90625-3.90625-10.238281-3.90625-14.144531 0l-15.839844 15.839843c-3.90625 3.90625-3.90625 10.238281 0 14.144531l15.839844 15.839844c1.953125 1.953125 4.511718 2.929688 7.070312 2.929688 2.5625 0 5.121094-.976563 7.074219-2.929688 3.902344-3.90625 3.902344-10.234375 0-14.140625l-8.773437-8.773437 8.773437-8.769532c3.902344-3.90625 3.902344-10.238281 0-14.140624zm0 0"/><path d="m366.339844 241.210938c3.902344-3.90625 3.902344-10.234376 0-14.140626l-8.773438-8.773437 8.773438-8.769531c3.902344-3.90625 3.902344-10.234375 0-14.140625-3.90625-3.90625-10.238282-3.90625-14.144532 0l-15.839843 15.839843c-3.90625 3.90625-3.90625 10.238282 0 14.144532l15.839843 15.839844c1.953126 1.953124 4.511719 2.929687 7.070313 2.929687s5.121094-.976563 7.074219-2.929687zm0 0"/><path d="m298.714844 412.429688c-3.90625-3.90625-10.238282-3.90625-14.144532 0l-15.84375 15.839843c-3.902343 3.90625-3.902343 10.238281 0 14.144531l15.84375 15.839844c1.953126 1.953125 4.511719 2.929688 7.070313 2.929688s5.121094-.976563 7.070313-2.929688c3.90625-3.902344 3.90625-10.234375 0-14.140625l-8.769532-8.769531 8.769532-8.773438c3.90625-3.90625 3.90625-10.238281.003906-14.140624zm0 0"/><path d="m361.109375 364.171875 8.769531-8.769531c3.90625-3.902344 3.90625-10.234375 0-14.140625-3.902344-3.90625-10.234375-3.90625-14.140625 0l-15.84375 15.839843c-3.902343 3.90625-3.902343 10.238282 0 14.144532l15.84375 15.839844c1.953125 1.953124 4.511719 2.929687 7.070313 2.929687s5.117187-.976563 7.070312-2.929687c3.90625-3.902344 3.90625-10.234376 0-14.140626zm0 0"/><path d="m441.046875 270.09375c-3.90625-3.902344-10.238281-3.902344-14.144531 0l-15.839844 15.84375c-1.875 1.875-2.929688 4.417969-2.929688 7.070312 0 2.652344 1.054688 5.195313 2.929688 7.070313l15.839844 15.839844c1.953125 1.953125 4.511718 2.929687 7.074218 2.929687 2.558594 0 5.117188-.976562 7.070313-2.929687 3.902344-3.90625 3.902344-10.234375 0-14.140625l-8.773437-8.769532 8.773437-8.773437c3.90625-3.902344 3.90625-10.234375 0-14.140625zm0 0"/><path d="m502.578125 275.804688-142.351563-142.351563c-3.90625-3.90625-10.238281-3.90625-14.144531 0-3.902343 3.90625-3.902343 10.234375 0 14.140625l2.042969 2.042969-56.734375 56.734375-60.277344-60.277344 56.734375-56.734375 1.671875 1.671875c3.902344 3.902344 10.238281 3.902344 14.140625 0 3.90625-3.90625 3.90625-10.238281 0-14.144531l-8.742187-8.742188-58.738281-58.734375c-12.546876-12.546875-32.960938-12.546875-45.507813 0l-55.1875 55.1875s-.003906.003906-.003906.003906c-.003907.003907-.003907.003907-.007813.007813l-70.863281 70.863281c-.003906.003906-.003906.003906-.007813.007813 0 0 0 0-.003906.003906l-55.1875 55.1875c-12.546875 12.546875-12.546875 32.960937 0 45.507813l58.730469 58.730468c.003906 0 .003906.003906.007813.007813.003906 0 .003906.003906.007812.003906l74.398438 74.398437c.003906.007813.007812.011719.011718.015626.003906.003906.011719.007812.015625.015624l74.394531 74.390626c.003907.003906.007813.011718.011719.015624.003907.003907.007813.007813.011719.011719l58.804688 58.804688c6.078124 6.078125 14.160156 9.425781 22.753906 9.425781 8.597656 0 16.679687-3.347656 22.753906-9.425781l55.1875-55.183594c0-.003906.003906-.003906.007812-.007813.003907-.003906.003907-.007812.007813-.007812l70.863281-70.863281s.003906-.003907.007813-.003907c0-.003906.003906-.003906.003906-.007812l55.1875-55.1875c12.542969-12.546875 12.542969-32.960938 0-45.507812zm-140.308594-112.027344 60.277344 60.28125-56.738281 56.734375-60.277344-60.277344zm7.167969 262.394531-60.359375-60.363281 56.730469-56.734375 60.363281 60.363281zm-74.503906-74.503906-60.277344-60.277344 56.734375-56.734375 60.277344 60.277344zm-131.152344 10.597656 56.734375-56.734375 60.277344 60.277344-56.734375 56.734375zm-74.421875-74.421875 56.734375-56.734375 60.277344 60.277344-56.734375 56.734375zm187.890625-67.332031-56.734375 56.734375-60.28125-60.277344 56.734375-56.734375zm-134.699219-134.699219 60.277344 60.28125-56.734375 56.734375-60.277344-60.28125zm62.261719-62.261719c2.300781-2.300781 5.359375-3.566406 8.613281-3.566406 3.253907 0 6.3125 1.265625 8.613281 3.566406l51.667969 51.664063-56.738281 56.734375-60.277344-60.277344zm-184.828125 189.875c0-3.253906 1.265625-6.3125 3.566406-8.613281l48.125-48.121094 60.277344 60.277344-56.734375 56.734375-51.667969-51.664063c-2.300781-2.300781-3.566406-5.359374-3.566406-8.613281zm287.1875 275.007813c-2.300781 2.300781-5.359375 3.566406-8.613281 3.566406-3.25 0-6.308594-1.265625-8.609375-3.566406l-51.75-51.746094 56.734375-56.734375 60.363281 60.359375zm181.261719-181.261719-48.121094 48.121094-60.359375-60.359375 56.734375-56.734375 51.746094 51.746093c4.75 4.75 4.75 12.480469 0 17.226563zm0 0"/><path d="m325.71875 123.089844c2.640625 0 5.210938-1.058594 7.070312-2.929688 1.871094-1.859375 2.929688-4.429687 2.929688-7.070312 0-2.628906-1.058594-5.210938-2.929688-7.070313-1.859374-1.859375-4.429687-2.929687-7.070312-2.929687-2.628906 0-5.207031 1.070312-7.070312 2.929687-1.859376 1.859375-2.929688 4.441407-2.929688 7.070313 0 2.640625 1.070312 5.210937 2.929688 7.070312 1.863281 1.871094 4.441406 2.929688 7.070312 2.929688zm0 0"/></svg>