<?xml version="1.0" encoding="iso-8859-1"?>
<!-- Generator: Adobe Illustrator 19.0.0, SVG Export Plug-In . SVG Version: 6.00 Build 0)  -->
<svg version="1.1" id="Capa_1" xmlns="http://www.w3.org/2000/svg" xmlns:xlink="http://www.w3.org/1999/xlink" x="0px" y="0px"
	 viewBox="0 0 512 512" style="enable-background:new 0 0 512 512;" xml:space="preserve">
<path style="fill:#F4A32C;" d="M459.544,501.514L275.498,365.523l-49.381,108.264c-2.995,6.564-10.01,10.079-17.062,8.548
	c-7.051-1.532-11.976-7.642-11.976-14.858V352.654L79.935,429.043c-6.162,4.018-14.055,3.147-19.193-2.123
	c-5.136-5.27-5.807-13.184-1.63-19.242l80.961-117.477l-64.228,1.615c-7.401,0.168-13.818-4.939-15.284-12.184
	c-1.466-7.246,2.464-14.467,9.345-17.169l58.174-22.845l-92.756-58.18c-6.152-3.856-8.722-11.577-6.106-18.354
	c2.614-6.777,9.711-10.773,16.854-9.494l107.313,19.122l-21.977-42.844c-3.28-6.4-1.703-14.069,3.832-18.651
	c5.537-4.583,13.364-4.701,19.036-0.287l38.056,29.634l-4.569-117.262c-0.285-7.368,4.732-13.862,11.933-15.442
	c7.196-1.583,14.476,2.213,17.303,9.022l48.443,116.755l30.501-41.052c4.368-5.88,12.05-7.809,18.678-4.691
	c6.629,3.12,10.04,10.268,8.292,17.383l-10.814,44.042l126.84-69.381c6.434-3.519,14.464-1.944,19.091,3.745
	c4.627,5.689,4.534,13.871-0.221,19.453l-93.843,110.196l85.248,4.063c16.054,0.766,20.054,22.777,5.303,29.147l-101.318,43.712
	l128.002,190.553c4.136,6.155,3.247,14.343-2.114,19.468C473.757,505.372,465.54,505.946,459.544,501.514z"/>
<path style="fill:#E89528;" d="M199.695,7.86c-7.2,1.58-12.219,8.073-11.933,15.442l4.569,117.262l-38.056-29.634
	c-5.672-4.414-13.499-4.296-19.036,0.288c-5.535,4.582-7.112,12.251-3.832,18.651l21.978,42.843L46.072,153.59
	c-7.143-1.278-14.241,2.716-16.854,9.494c-2.616,6.777-0.046,14.498,6.106,18.354l92.756,58.18l-58.174,22.846
	c-6.88,2.702-10.812,9.923-9.345,17.169c1.466,7.245,7.882,12.352,15.284,12.184l64.228-1.615L59.112,407.678
	c-4.177,6.059-3.506,13.972,1.63,19.243c5.138,5.27,13.031,6.141,19.193,2.123l117.146-76.389v0.224l36.146-50.069l39.505-136.676
	c-0.752-19.303-7.291-32.495-7.291-32.495L216.998,16.884C214.169,10.073,206.891,6.277,199.695,7.86z"/>
<path style="fill:#F7E7A1;" d="M280.395,337.298l146.036,107.906L324.956,294.141c-5.299-7.882-2.147-18.661,6.593-22.437
	l71.539-30.865l-61.509-2.932c-12.61-0.604-19.039-15.436-10.849-25.047l71.005-83.379l-98.084,53.651
	c-5.285,2.891-11.788,2.386-16.564-1.286c-4.777-3.672-6.935-9.827-5.499-15.678l4.152-16.912l-10.681,14.376
	c-7.026,9.455-21.728,7.65-26.247-3.237l-33.198-80.013l3.178,81.557c0.23,5.885-3.009,11.428-8.25,14.118
	c-5.242,2.69-11.634,2.091-16.283-1.529l-18.585-14.472l10.078,19.644c5.736,11.181-3.815,24.112-16.191,21.909l-75.262-13.411
	l64.865,40.684c4.889,3.065,7.595,8.541,7.059,14.291c-0.535,5.748-4.207,10.632-9.582,12.742l-22.444,8.815l25.655-0.646
	c5.722-0.132,11.016,2.907,13.752,7.962c2.736,5.055,2.409,11.135-0.853,15.867l-62.619,90.861l89.049-58.068
	c4.681-3.049,10.638-3.291,15.548-0.632c4.91,2.661,7.96,7.783,7.96,13.369v86.14l34.832-76.37c1.913-4.191,5.567-7.256,10.027-8.41
	C271.99,333.656,276.676,334.548,280.395,337.298z"/>
<path style="fill:#F4D44E;" d="M110.133,378.775l89.049-58.067c4.681-3.049,10.638-3.291,15.548-0.632
	c1.638,0.888,3.063,2.054,4.242,3.415l14.254-20.682c2.87-4.164,3.158-9.514,0.75-13.961c-2.407-4.448-7.065-7.123-12.1-7.006
	l-22.573,0.568l19.748-7.755c4.729-1.856,7.959-6.152,8.43-11.211c0.472-5.059-1.909-9.878-6.211-12.575l-57.073-35.798l66.222,11.8
	c10.889,1.938,19.293-9.44,14.246-19.277l-8.867-17.285l16.353,12.734c4.09,3.185,9.715,3.712,14.327,1.346
	c4.612-2.367,7.461-7.243,7.259-12.422l-1.007-25.833c-7.545,6.495-19.851,4.058-23.917-5.738l-33.199-80.013l3.178,81.557
	c0.23,5.886-3.009,11.429-8.25,14.118c-5.242,2.69-11.634,2.091-16.283-1.529l-18.584-14.472l10.078,19.644
	c5.736,11.181-3.815,24.112-16.191,21.909L94.3,188.199l64.865,40.685c4.889,3.065,7.595,8.541,7.059,14.292
	c-0.535,5.748-4.207,10.631-9.582,12.742l-22.445,8.815l25.655-0.646c5.721-0.132,11.016,2.907,13.752,7.962
	c2.736,5.055,2.409,11.135-0.853,15.867L110.133,378.775z"/>
<path d="M221.099,426.914c3.446,0.748,6.953-1.007,8.417-4.217l34.831-76.368c0.97-2.125,2.821-3.679,5.084-4.263
	c2.262-0.587,4.633-0.121,6.506,1.265l146.035,107.906c1.332,0.983,2.896,1.468,4.455,1.468c1.877,0,3.745-0.702,5.185-2.079
	c2.638-2.521,3.077-6.574,1.043-9.604L331.18,289.954c-1.28-1.903-1.643-4.26-0.996-6.463c0.648-2.204,2.229-3.991,4.336-4.901
	l71.539-30.865c3.205-1.383,5.032-4.794,4.408-8.229c-0.624-3.434-3.535-5.983-7.021-6.149l-61.508-2.932
	c-2.959-0.142-5.527-1.917-6.703-4.634c-1.177-2.717-0.715-5.804,1.206-8.059l71.006-83.379c2.346-2.754,2.391-6.789,0.107-9.597
	c-2.281-2.806-6.24-3.581-9.418-1.847l-98.083,53.651c-2.681,1.464-5.973,1.209-8.393-0.652c-2.42-1.86-3.514-4.979-2.787-7.942
	l4.152-16.912c0.852-3.467-0.859-7.054-4.09-8.574s-7.086-0.553-9.215,2.313l-10.68,14.375c-1.648,2.22-4.382,3.388-7.126,3.053
	c-2.748-0.339-5.113-2.137-6.173-4.69l-33.198-80.013c-1.392-3.354-4.979-5.229-8.536-4.451c-3.548,0.778-6.027,3.987-5.886,7.617
	l3.178,81.559c0.116,2.981-1.523,5.788-4.18,7.15c-2.657,1.363-5.896,1.06-8.25-0.774l-18.585-14.472
	c-2.775-2.16-6.68-2.104-9.392,0.142c-2.71,2.243-3.496,6.069-1.89,9.2l10.077,19.645c1.346,2.622,1.094,5.724-0.658,8.094
	c-1.752,2.37-4.635,3.526-7.543,3.007l-75.262-13.41c-3.536-0.631-7.02,1.334-8.313,4.684c-1.293,3.35-0.03,7.146,3.012,9.055
	l64.866,40.686c2.477,1.553,3.847,4.327,3.575,7.24c-0.271,2.912-2.132,5.386-4.856,6.456l-22.443,8.815
	c-3.389,1.33-5.332,4.901-4.609,8.469c0.722,3.567,3.927,6.086,7.539,6.01l25.64-0.646c0.062-0.002,0.122-0.002,0.184-0.002
	c2.852,0,5.444,1.534,6.799,4.037c1.387,2.561,1.221,5.641-0.433,8.039l-3.86,5.602c-2.351,3.41-1.491,8.081,1.92,10.433
	c3.411,2.351,8.081,1.489,10.433-1.92l3.859-5.601c4.871-7.066,5.359-16.146,1.273-23.693c-2.825-5.22-7.469-9.012-12.916-10.781
	c3.603-3.652,5.909-8.488,6.407-13.826c0.799-8.586-3.241-16.765-10.543-21.341l-32.168-20.177l37.266,6.64
	c8.557,1.524,17.077-1.873,22.237-8.859c3.635-4.918,5.079-10.905,4.232-16.715c6.108,2.585,13.19,2.42,19.249-0.688
	c7.828-4.017,12.666-12.293,12.321-21.083l-1.547-39.698l17.146,41.321c3.126,7.531,10.097,12.83,18.196,13.83
	c4.928,0.61,9.835-0.437,14.018-2.817c1.064,5.269,3.986,10.105,8.417,13.51c7.13,5.483,16.84,6.238,24.734,1.921l62.412-34.14
	l-44.643,52.422c-5.658,6.64-7.021,15.739-3.554,23.745c3.467,8.008,11.036,13.241,19.754,13.658l29.145,1.39l-41.791,18.03
	c-6.215,2.685-10.874,7.949-12.783,14.446c-1.907,6.498-0.836,13.446,2.938,19.059l77.322,115.11l-111.198-82.164
	c-3.939-2.913-8.599-4.453-13.476-4.453c-1.919,0-3.84,0.245-5.705,0.729c-6.658,1.721-12.116,6.298-14.975,12.56l-20.507,44.964
	V333.45c0-8.338-4.555-15.987-11.891-19.965c-7.332-3.967-16.227-3.606-23.216,0.946l-57.201,37.3l17.303-25.105
	c2.351-3.41,1.491-8.081-1.92-10.433c-3.413-2.353-8.082-1.491-10.433,1.92l-38.877,56.412c-2.032,2.95-1.695,6.926,0.805,9.492
	c2.501,2.565,6.468,3.005,9.469,1.047l89.047-58.066c2.372-1.546,5.392-1.669,7.878-0.323c2.489,1.35,4.035,3.945,4.035,6.774
	v86.141C215.19,423.114,217.651,426.165,221.099,426.914z"/>
<path d="M317.812,81.105c-9.899-4.655-21.369-1.776-27.893,7.005l-22.617,30.443L223.924,14.008
	c-4.223-10.173-15.091-15.84-25.837-13.473c-10.752,2.359-18.245,12.057-17.819,23.06l0.958,24.583
	c0.161,4.139,3.642,7.337,7.786,7.202c4.139-0.161,7.363-3.647,7.202-7.786l-0.958-24.581c-0.145-3.734,2.398-7.025,6.049-7.826
	c3.644-0.802,7.331,1.12,8.763,4.57l48.443,116.755c1.035,2.493,3.33,4.238,6.009,4.569c2.678,0.332,5.329-0.803,6.939-2.971
	l30.501-41.053c2.248-3.027,6.052-3.982,9.464-2.377c3.412,1.605,5.101,5.146,4.202,8.808l-10.814,44.044
	c-0.708,2.888,0.355,5.921,2.713,7.733c2.358,1.815,5.563,2.062,8.171,0.635l126.84-69.381c3.26-1.784,7.328-0.985,9.674,1.896
	c2.344,2.883,2.297,7.028-0.113,9.859l-93.843,110.195c-1.854,2.177-2.309,5.22-1.172,7.844c1.137,2.625,3.668,4.374,6.524,4.51
	l85.247,4.063c3.603,0.173,6.568,2.771,7.214,6.318c0.646,3.546-1.216,7.021-4.523,8.449l-101.319,43.712
	c-2.048,0.884-3.596,2.632-4.225,4.771c-0.629,2.14-0.273,4.447,0.97,6.298l34.641,51.569c1.447,2.155,3.817,3.319,6.232,3.319
	c1.438,0,2.892-0.413,4.175-1.275c3.438-2.31,4.354-6.969,2.044-10.408l-29.607-44.077l93.031-40.137
	c9.756-4.212,15.24-14.455,13.339-24.907c-1.901-10.455-10.643-18.11-21.257-18.617l-69.993-3.336L463.52,108
	c7.1-8.337,7.239-20.555,0.33-29.051c-6.91-8.495-18.899-10.849-28.511-5.592l-111.895,61.206l6.751-27.501
	C332.804,96.44,327.712,85.767,317.812,81.105z"/>
<path d="M413.591,366.711c-2.309-3.438-6.968-4.354-10.408-2.044c-3.438,2.31-4.354,6.97-2.044,10.408l73.836,109.918
	c2.095,3.117,1.645,7.266-1.07,9.862c-1.447,1.383-3.338,2.145-5.325,2.145h-0.003c-1.649,0-3.231-0.524-4.575-1.518
	l-184.046-135.99c-1.819-1.344-4.147-1.792-6.336-1.229c-2.189,0.566-4.006,2.091-4.944,4.148l-49.381,108.263
	c-1.541,3.379-5.019,5.118-8.646,4.331c-3.629-0.788-6.066-3.813-6.066-7.528V352.654c0-2.752-1.508-5.283-3.928-6.595
	c-2.419-1.312-5.362-1.191-7.669,0.313L75.837,422.761c-3.174,2.069-7.08,1.636-9.725-1.074c-2.645-2.714-2.977-6.632-0.826-9.752
	l80.962-117.478c1.601-2.322,1.763-5.347,0.42-7.827c-1.313-2.425-3.848-3.929-6.595-3.929c-0.063,0-0.126,0.001-0.189,0.002
	l-64.21,1.615c-3.797,0.057-7.021-2.511-7.762-6.172c-0.743-3.672,1.248-7.33,4.734-8.701L130.82,246.6
	c2.636-1.035,4.464-3.466,4.727-6.285c0.263-2.818-1.084-5.546-3.482-7.05l-92.757-58.181c-3.117-1.954-4.418-5.864-3.093-9.3
	c1.326-3.435,4.909-5.459,8.541-4.81l107.313,19.122c2.81,0.498,5.653-0.633,7.347-2.926c1.694-2.291,1.942-5.346,0.642-7.881
	l-21.977-42.841c-1.662-3.243-0.864-7.13,1.941-9.452c2.806-2.322,6.772-2.384,9.646-0.147l38.056,29.634
	c2.302,1.791,5.433,2.086,8.031,0.755c2.597-1.332,4.185-4.049,4.07-6.965l-2.248-57.675c-0.162-4.14-3.684-7.359-7.786-7.202
	c-4.139,0.161-7.363,3.647-7.202,7.786l1.619,41.551l-25.326-19.721c-8.469-6.59-20.159-6.414-28.425,0.43
	c-8.268,6.844-10.622,18.296-5.723,27.852l15.072,29.382l-92.413-16.467c-10.689-1.92-21.268,4.054-25.172,14.177
	c-3.906,10.121-0.071,21.648,9.119,27.409l80.16,50.28l-44.336,17.411c-10.274,4.035-16.144,14.817-13.954,25.638
	c2.149,10.621,11.472,18.199,22.296,18.199c0.176,0,0.352-0.002,0.527-0.006l49.508-1.245L52.935,403.421
	c-6.237,9.048-5.236,20.863,2.436,28.735c7.67,7.87,19.459,9.174,28.66,3.169l105.549-68.826v100.978
	c0,10.777,7.354,19.9,17.884,22.188c10.529,2.287,21.006-2.961,25.477-12.765l45.542-99.846l176.604,130.492
	c3.943,2.913,8.607,4.453,13.488,4.453h0.007c5.864,0,11.436-2.237,15.689-6.302c8.005-7.653,9.333-19.881,3.156-29.072
	L413.591,366.711z"/>
<g>
</g>
<g>
</g>
<g>
</g>
<g>
</g>
<g>
</g>
<g>
</g>
<g>
</g>
<g>
</g>
<g>
</g>
<g>
</g>
<g>
</g>
<g>
</g>
<g>
</g>
<g>
</g>
<g>
</g>
</svg>
