<svg height="512pt" viewBox="0 -14 512.00008 512" width="512pt" xmlns="http://www.w3.org/2000/svg"><g fill="#cff1fb"><path d="m278.210938 236.84375-187.292969 54.980469c-2.085938.613281-4.191407.871093-6.257813.8125-8.496094-.242188-16.246094-5.882813-18.769531-14.480469l-54.976563-187.292969c-3.140624-10.683593 2.980469-21.886719 13.664063-25.023437l187.292969-54.980469c10.683594-3.136719 21.890625 2.980469 25.027344 13.667969l23.332031 79.488281 31.648437 107.800781c3.136719 10.683594-2.984375 21.890625-13.667968 25.027344zm0 0"/><path d="m452.800781 138.460938 46.464844 80.484374c5.441406 9.421876 2.210937 21.464844-7.207031 26.902344l-169.859375 98.066406c-9.417969 5.4375-21.460938 2.210938-26.898438-7.207031l-98.066406-169.859375c-5.441406-9.417968-2.210937-21.460937 7.207031-26.898437l169.859375-98.070313c9.417969-5.4375 21.460938-2.210937 26.898438 7.210938l12.195312 21.117187"/><path d="m273.328125 473.3125-192.058594-34.84375c-10.957031-1.988281-18.226562-12.480469-16.242187-23.4375l34.84375-192.058594c1.988281-10.957031 12.484375-18.230468 23.441406-16.242187l192.058594 34.84375c10.957031 1.988281 18.226562 12.480469 16.242187 23.4375l-34.84375 192.058593c-1.988281 10.957032-12.484375 18.230469-23.441406 16.242188zm0 0"/></g><path d="m276.992188 483.773438c6.097656 0 12.042968-1.847657 17.160156-5.394532 6.640625-4.601562 11.09375-11.511718 12.535156-19.460937l19.132812-105.464844c58.5-29.769531 114.421876-66.003906 171.28125-98.828125 6.886719-3.976562 11.8125-10.398438 13.871094-18.078125 2.058594-7.683594 1.003906-15.707031-2.976562-22.59375l-46.46875-80.488281c-6.472656-11.210938-23.941406-1.140625-17.460938 10.082031l46.46875 80.488281c2.621094 4.539063 1.023438 10.503906-3.515625 13.125l-169.863281 98.070313c-4.539062 2.621093-10.503906 1.023437-13.125-3.519531l-98.070312-169.859376c-2.621094-4.539062-1.023438-10.503906 3.515624-13.125l169.863282-98.070312c4.539062-2.621094 10.503906-1.023438 13.125 3.515625l12.195312 21.121094c6.472656 11.210937 23.945313 1.144531 17.460938-10.082031l-12.191406-21.121094c-3.976563-6.886719-10.398438-11.8125-18.082032-13.871094-7.683594-2.0625-15.707031-1.003906-22.59375 2.972656l-102.027344 58.90625-20.65625-70.367187c-4.699218-16.003907-21.539062-25.199219-37.542968-20.503907l-187.289063 54.984376c-7.75 2.273437-14.152343 7.433593-18.023437 14.523437s-4.75 15.265625-2.476563 23.015625l54.980469 187.292969c2.828125 9.636719 10.105469 16.988281 19.234375 20.097656l-20.34375 112.136719c-2.976563 16.40625 7.953125 32.179687 24.359375 35.15625zm-201.425782-208.414063-54.980468-187.289063c-1.550782-5.277343 1.554687-10.964843 6.835937-12.511718l187.289063-54.980469c5.332031-1.566406 10.945312 1.5 12.511718 6.832031l22.035156 75.0625-49.859374 28.789063c-6.890626 3.976562-11.816407 10.398437-13.871094 18.078125-2.0625 7.683594-1.003906 15.707031 2.972656 22.59375l23.488281 40.683594-86.875-15.761719c-16.414062-2.976563-32.183593 7.949219-35.160156 24.359375l-10.773437 59.371094c-1.691407-1.273438-2.984376-3.078126-3.613282-5.226563zm211.28125 179.957031c-.980468 5.414063-6.304687 9.101563-11.71875 8.121094l-192.058594-34.84375c-5.46875-.992188-9.113281-6.25-8.121093-11.71875l34.84375-192.058594c.992187-5.472656 6.253906-9.113281 11.71875-8.121094l103.691406 18.8125 61.367187 106.285157c3.976563 6.886719 10.394532 11.8125 18.078126 13.871093.089843.027344.179687.039063.265624.0625zm0 0"/><path d="m105.503906 82.730469c-1.566406-5.34375-7.171875-8.402344-12.511718-6.832031l-42.84375 12.578124c-5.273438 1.546876-8.382813 7.238282-6.835938 12.511719l10.773438 36.699219c3.65625 12.449219 22.996093 6.746094 19.347656-5.683594l-7.933594-27.023437 33.167969-9.734375c5.34375-1.570313 8.402343-7.171875 6.835937-12.515625zm0 0"/><path d="m272.875 391.632812c-5.472656-.996093-10.726562 2.644532-11.71875 8.121094l-4.867188 26.832032-32.984374-5.984376c-12.738282-2.308593-16.355469 17.523438-3.601563 19.839844l42.90625 7.785156c5.289063.957032 10.75-2.789062 11.71875-8.121093l6.667969-36.75c.996094-5.480469-2.640625-10.726563-8.121094-11.722657zm0 0"/><path d="m422.753906 103.414062c-.84375 4.214844 1.171875 8.625 4.914063 10.738282 3.671875 2.074218 8.351562 1.621094 11.546875-1.132813 6.765625-5.816406 2.804687-17.261719-6.082032-17.703125-4.9375-.246094-9.398437 3.265625-10.378906 8.097656zm0 0"/><path d="m287.523438 358.347656c-1.65625-3.96875-5.753907-6.515625-10.054688-6.195312-4.199219.3125-7.835938 3.304687-8.960938 7.363281-2.390624 8.617187 7.246094 15.890625 14.886719 11.335937 4.230469-2.523437 6.019531-7.960937 4.128907-12.503906zm0 0"/></svg>