<svg id="Capa_1" enable-background="new 0 0 512 512" height="512" viewBox="0 0 512 512" width="512" xmlns="http://www.w3.org/2000/svg"><g><g><g><g><path d="m142.379 60.059v-50.059h220.241v50.059z" fill="#99ebfa"/><path d="m186.74 417.919h218.242v-171.252h-218.242" fill="#ffe6b4"/><path d="m186.74 246.667v-122.135h.001l-44.363-64.473-35.359 64.473h-.001v377.468h79.722v-84.081" fill="#99ebfa"/><g><path d="m186.74 417.919h218.242v84.081h-218.242z" fill="#ccf5fc"/><path d="m186.74 124.532h218.242v122.135h-218.242z" fill="#ccf5fc"/><g><path d="m404.982 124.532-42.362-64.473h-220.241l44.362 64.473z" fill="#faf7f5"/></g></g></g></g><g><path d="m278.42 246.667v77.336c0 11.649 9.444 21.092 21.094 21.092s21.094-9.443 21.094-21.092v-29.048c0 11.649 9.444 21.092 21.094 21.092s21.094-9.443 21.094-21.092v63.172c0 11.649 9.444 21.092 21.094 21.092s21.094-9.443 21.094-21.092v-111.46z" fill="#faf7f5"/></g></g><g><path d="m186.74 339.37c-4.193 0-7.983-2.713-9.407-6.635s-.153-8.446 3.063-11.093c3.27-2.691 8.024-3.002 11.621-.767 3.499 2.174 5.328 6.411 4.523 10.446-.919 4.611-5.088 8.049-9.8 8.049z"/><path d="m414.981 124.487c0-.055-.001-.11-.002-.165-.001-.031-.001-.062-.002-.093-.001-.053-.004-.105-.006-.158-.002-.038-.004-.077-.006-.115-.002-.026-.003-.052-.005-.078-.118-1.825-.724-3.516-1.691-4.945l-40.649-61.866v-47.067c0-5.523-4.477-10-10-10h-220.241c-5.523 0-10 4.477-10 10v47.497l-34.128 62.226c-.809 1.474-1.232 3.128-1.232 4.809v377.468c0 5.523 4.478 10 10 10h297.963c5.522 0 10-4.477 10-10v-377.468c-.001-.015-.001-.03-.001-.045zm-52.186 160.468c-5.522 0-10 4.477-10 10 0 6.116-4.977 11.092-11.094 11.092s-11.094-4.976-11.094-11.092c0-5.523-4.477-10-10-10-5.522 0-10 4.477-10 10v29.048c0 6.116-4.977 11.092-11.094 11.092s-11.094-4.976-11.094-11.092v-67.336h106.562v101.46c0 6.116-4.977 11.092-11.093 11.092-6.117 0-11.094-4.976-11.094-11.092v-63.171c.001-5.524-4.477-10.001-9.999-10.001zm-166.056-48.288.001-102.135h198.241v102.135zm-4.741-122.135-30.6-44.473h195.827l29.22 44.473zm-39.619-94.532h200.241v30.059h-200.241zm-35.359 107.094 26.322-47.994 33.398 48.54v119.027c0 .307.015.61.042.909-.026.296-.041.595-.041.898v35.444c0 5.523 4.478 10 10 10s10-4.477 10-10v-27.251h71.68v67.336c0 17.144 13.948 31.092 31.094 31.092s31.094-13.948 31.094-31.092v-.001c3.447 1.321 7.188 2.045 11.094 2.045s7.646-.724 11.094-2.045v34.124c0 17.144 13.948 31.092 31.094 31.092 3.906 0 7.646-.724 11.093-2.045v20.746h-198.244v-33.47c0-5.523-4.478-10-10-10s-10 4.477-10 10v43.393c0 .026-.001.051-.001.076v74.082h-19.354v-273.454c0-5.523-4.477-10-10-10-5.522 0-10 4.477-10 10v273.454h-20.367zm277.961 364.906h-198.242v-50.89c0-.026.001-.051.001-.077v-13.114h198.241z"/></g></g></svg>