<svg height="512pt" viewBox="0 0 512.00005 512" width="512pt" xmlns="http://www.w3.org/2000/svg"><path d="m502.003906 256c0 135.863281-110.140625 246.003906-246.003906 246.003906s-246-110.140625-246-246.003906 110.136719-246 246-246 246.003906 110.136719 246.003906 246zm0 0" fill="#91def5"/><path d="m404 216h-108v-108h-80v108h-108v80h108v108h80v-108h108zm0 0" fill="#fff"/><path d="m296 414h-80c-5.523438 0-10-4.476562-10-10v-98h-98c-5.523438 0-10-4.476562-10-10v-80c0-5.523438 4.476562-10 10-10h98v-98c0-5.523438 4.476562-10 10-10h80c5.523438 0 10 4.476562 10 10v98h98c5.523438 0 10 4.476562 10 10v80c0 5.523438-4.476562 10-10 10h-98v98c0 5.523438-4.476562 10-10 10zm-70-20h60v-98c0-5.523438 4.476562-10 10-10h98v-60h-98c-5.523438 0-10-4.476562-10-10v-98h-60v98c0 5.523438-4.476562 10-10 10h-98v60h98c5.523438 0 10 4.476562 10 10zm0 0"/><path d="m255.9375 512c-6.53125 0-13.070312-.25-19.621094-.75-60.835937-4.664062-118.132812-31.027344-161.335937-74.226562-48.351563-48.355469-74.980469-112.640626-74.980469-181.023438 0-68.378906 26.628906-132.667969 74.980469-181.019531 48.351562-48.351563 112.640625-74.980469 181.019531-74.980469 68.382812 0 132.667969 26.628906 181.023438 74.980469 43.199218 43.203125 69.5625 100.5 74.226562 161.335937 4.613281 60.175782-12.144531 120.15625-47.183594 168.898438-3.222656 4.484375-9.472656 5.503906-13.957031 2.28125s-5.503906-9.472656-2.28125-13.957032c67.726563-94.207031 57.234375-222.230468-24.949219-304.417968-92.015625-92.015625-241.738281-92.015625-333.753906 0-92.019531 92.019531-92.019531 241.738281 0 333.757812 82.183594 82.179688 210.207031 92.675782 304.417969 24.945313 4.484375-3.222657 10.730469-2.199219 13.957031 2.285156 3.222656 4.484375 2.199219 10.730469-2.285156 13.957031-43.4375 31.226563-95.804688 47.933594-149.277344 47.933594zm0 0"/><path d="m429.953125 439.953125c-2.632813 0-5.210937-1.070313-7.070313-2.929687-1.859374-1.863282-2.929687-4.441407-2.929687-7.070313 0-2.632813 1.070313-5.210937 2.929687-7.070313 1.859376-1.859374 4.4375-2.929687 7.070313-2.929687 2.628906 0 5.207031 1.070313 7.070313 2.929687 1.859374 1.859376 2.929687 4.4375 2.929687 7.070313 0 2.628906-1.070313 5.207031-2.929687 7.070313-1.863282 1.859374-4.441407 2.929687-7.070313 2.929687zm0 0"/></svg>