<svg id="Layer_1" enable-background="new 0 0 512 512" height="512" viewBox="0 0 512 512" width="512" xmlns="http://www.w3.org/2000/svg"><path clip-rule="evenodd" d="m256.005 117.96c-76.246 0-138.047 61.801-138.047 138.047s61.801 138.047 138.047 138.047 138.047-61.801 138.047-138.047-61.801-138.047-138.047-138.047z" fill="#ffe6b4" fill-rule="evenodd"/><path clip-rule="evenodd" d="m420.619 78.279c-29.654 6.769-60.668 12.547-91.002-.028-30.334-12.547-48.149-38.576-64.35-64.322-1.246-2.011-3.767-3.257-6.599-3.71h-5.353c-2.804.453-5.325 1.699-6.571 3.682-16.229 25.746-34.016 51.803-64.378 64.35-30.334 12.575-61.319 6.769-91.002.028-6.033-1.388-14.473 7.109-13.085 13.114 6.769 29.654 12.547 60.668-.028 91.002-12.547 30.306-38.576 48.149-64.322 64.35-2.011 1.246-3.229 3.767-3.71 6.571v5.41c.481 2.804 1.699 5.296 3.682 6.543 25.774 16.201 51.803 34.016 64.35 64.378 12.575 30.334 6.769 61.319.028 91.002-1.388 6.033 7.109 14.473 13.114 13.085 29.654-6.769 60.668-12.547 91.002.028 30.334 12.547 48.149 38.576 64.35 64.322 1.246 2.011 3.767 3.257 6.599 3.71h5.353c2.804-.453 5.325-1.699 6.571-3.682 16.229-25.774 34.016-51.803 64.378-64.35 30.334-12.575 61.319-6.769 91.002-.028 6.061 1.388 14.473-7.109 13.085-13.114-6.769-29.654-12.547-60.668.028-91.002 12.547-30.334 38.576-48.149 64.322-64.35 2.011-1.246 3.257-3.795 3.71-6.628v-5.296c-.453-2.832-1.699-5.353-3.682-6.599-25.774-16.229-51.803-34.044-64.35-64.378-12.575-30.334-6.769-61.319-.028-91.002 1.387-6.062-7.11-14.474-13.114-13.086zm-164.614 39.681c76.246 0 138.047 61.801 138.047 138.047s-61.801 138.047-138.047 138.047-138.047-61.801-138.047-138.047 61.801-138.047 138.047-138.047z" fill="#ffcd69" fill-rule="evenodd"/><path d="m256.004 107.975c-81.625 0-148.031 66.406-148.031 148.03s66.406 148.031 148.031 148.031 148.032-66.407 148.032-148.031-66.407-148.03-148.032-148.03zm0 276.094c-70.613 0-128.062-57.449-128.062-128.063s57.448-128.062 128.062-128.062 128.063 57.448 128.063 128.062-57.448 128.063-128.063 128.063z"/><path d="m503.43 238.295c-12.159-7.656-24.955-15.975-35.993-26.077-4.068-3.723-10.383-3.445-14.107.624-3.722 4.068-3.443 10.383.624 14.106 11.96 10.945 25.782 20.01 37.942 27.681.183.769.175 1.984-.018 2.747-27.947 17.63-54.033 36.244-67.34 68.419-13.372 32.254-8.083 63.833-.769 96.038-.403.672-1.252 1.527-1.92 1.935-32.244-7.285-63.865-12.562-96.017.767-32.15 13.286-50.788 39.384-68.45 67.363-.767.183-1.984.176-2.747-.019-17.629-27.946-36.242-54.03-68.418-67.339-32.251-13.372-63.826-8.082-96.031-.771-.673-.406-1.53-1.257-1.941-1.928 7.283-32.241 12.558-63.862-.768-96.006-13.321-32.238-39.424-50.847-67.365-68.453-.188-.761-.188-1.97 0-2.732 27.945-17.627 54.033-36.238 67.36-68.432 13.371-32.252 8.084-63.827.771-96.031.406-.674 1.257-1.53 1.928-1.941 32.24 7.285 63.86 12.56 96.007-.768 32.109-13.269 50.761-39.373 68.453-67.368.763-.186 1.97-.183 2.732.005 17.632 27.952 36.247 54.047 68.429 67.358 32.257 13.374 63.833 8.082 96.04.769.672.404 1.529 1.254 1.936 1.922-3.621 16.078-7.115 33.214-7.382 50.811-.084 5.514 4.318 10.051 9.831 10.135.052 0 .104.001.155.001 5.443 0 9.897-4.371 9.98-9.832.244-16.049 3.651-32.371 7.113-47.687 1.422-6.209-.987-13.166-6.445-18.612-5.471-5.459-12.445-7.86-18.623-6.434-29.266 6.68-57.787 11.746-84.964.479-27.092-11.207-43.706-34.972-59.686-60.368-3.361-5.405-9.982-8.641-17.71-8.656-7.75-.057-14.367 3.199-17.74 8.576-16.062 25.481-32.718 49.278-59.756 60.451-27.075 11.224-55.641 6.176-84.94-.478-6.201-1.429-13.156.981-18.61 6.441-5.467 5.473-7.875 12.445-6.447 18.624 6.681 29.267 11.745 57.787.48 84.96-11.221 27.104-34.98 43.714-60.366 59.69-5.391 3.351-8.628 9.948-8.658 17.647-.031 7.732 3.171 14.384 8.586 17.809 25.45 15.997 49.224 32.603 60.44 59.748 11.223 27.073 6.175 55.64-.478 84.94-1.427 6.199.981 13.157 6.441 18.611 5.474 5.468 12.447 7.874 18.625 6.447 29.265-6.681 57.788-11.747 84.963-.479 27.093 11.207 43.707 34.972 59.721 60.421 3.394 5.382 10.028 8.592 17.753 8.591h.035c7.681-.009 14.276-3.218 17.631-8.568 16.037-25.47 32.675-49.257 59.754-60.447 27.075-11.225 55.64-6.176 84.949.48 6.205 1.421 13.165-.987 18.612-6.445 5.461-5.47 7.864-12.443 6.435-18.622-6.681-29.267-11.745-57.788-.478-84.963 11.205-27.093 34.97-43.706 60.419-59.721 5.391-3.398 8.603-10.047 8.594-17.785-.012-7.682-3.221-14.277-8.572-17.634z"/><path d="m207.069 175.471c-28.347 17.263-45.271 47.37-45.271 80.535 0 5.563 4.511 10.074 10.074 10.074s10.074-4.511 10.074-10.074c0-26.077 13.309-49.751 35.603-63.328 4.751-2.894 6.258-9.092 3.363-13.844-2.892-4.752-9.09-6.261-13.843-3.363z"/><path d="m440.671 175.16c-3.964-3.832-10.272-3.71-14.104.254-3.833 3.964-3.711 10.299.254 14.131 1.939 1.874 4.44 2.806 6.939 2.806 2.611 0 5.221-1.019 7.18-3.045 3.833-3.965 3.725-10.285-.239-14.118z"/><path d="m256.004 161.797h-.057c-5.563 0-10.046 4.511-10.046 10.074s4.539 10.074 10.103 10.074c5.563 0 10.074-4.511 10.074-10.074s-4.51-10.074-10.074-10.074z"/></svg>