<?xml version="1.0" encoding="iso-8859-1"?>
<!-- Generator: Adobe Illustrator 21.0.0, SVG Export Plug-In . SVG Version: 6.00 Build 0)  -->
<svg xmlns="http://www.w3.org/2000/svg" xmlns:xlink="http://www.w3.org/1999/xlink" version="1.1" id="Capa_1" x="0px" y="0px" viewBox="0 0 512 512" style="enable-background:new 0 0 512 512;" xml:space="preserve" width="512" height="512">
<path style="fill-rule:evenodd;clip-rule:evenodd;fill:#87E8D4;" d="M256,502c113.599,0,206.25-92.651,206.25-206.25  S369.599,89.5,256,89.5S49.75,182.151,49.75,295.75S142.401,502,256,502z"/>
<path style="fill-rule:evenodd;clip-rule:evenodd;fill:#E6E6E6;" d="M256,454.75c87.574,0,159-71.426,159-159s-71.426-159-159-159  s-159,71.426-159,159S168.426,454.75,256,454.75z"/>
<path style="fill-rule:evenodd;clip-rule:evenodd;fill:#5F6B75;" d="M256,326.875c17.144,0,31.125-13.982,31.125-31.125  c0-17.144-13.981-31.125-31.125-31.125c-17.143,0-31.125,13.981-31.125,31.125C224.875,312.893,238.857,326.875,256,326.875z"/>
<rect x="206.874" y="10" style="fill-rule:evenodd;clip-rule:evenodd;fill:#E6E6E6;" width="98.251" height="43.5"/>
<g>
	<path style="fill-rule:evenodd;clip-rule:evenodd;" d="M415.817,150.074l12.683-12.683l16.131,16.131   c3.905,3.905,10.237,3.905,14.142,0c3.905-3.905,3.905-10.236,0-14.142l-46.404-46.404c-3.905-3.905-10.236-3.905-14.142,0   c-3.905,3.905-3.905,10.236,0,14.142l16.131,16.132l-12.683,12.683C364.214,101.712,316.686,82.025,266,79.734V63.5h39.125   c5.523,0,10-4.477,10-10V10c0-5.523-4.477-10-10-10h-98.251c-5.523,0-10,4.477-10,10v43.5c0,5.523,4.477,10,10,10H246v16.234   c-54.007,2.441-104.434,24.626-142.912,63.104C62.244,183.683,39.75,237.988,39.75,295.75c0,43.773,13.019,85.94,37.648,121.94   c3.119,4.558,9.342,5.725,13.9,2.606c4.558-3.118,5.725-9.341,2.606-13.899C71.561,373.737,59.75,335.476,59.75,295.75   C59.75,187.537,147.787,99.5,256,99.5s196.25,88.037,196.25,196.25S364.213,492,256,492c-38.619,0-75.996-11.217-108.091-32.44   c-4.607-3.046-10.811-1.781-13.857,2.826c-3.046,4.607-1.781,10.811,2.826,13.857C172.255,499.635,213.447,512,256,512   c57.763,0,112.068-22.494,152.912-63.338c40.844-40.844,63.338-95.149,63.338-152.912   C472.25,241.334,452.279,189.99,415.817,150.074z M216.874,20h78.251v23.5h-78.251V20z"/>
	<path style="fill-rule:evenodd;clip-rule:evenodd;" d="M256,464.75c93.187,0,169-75.814,169-169c0-93.187-75.813-169-169-169   s-169,75.813-169,169C87,388.936,162.813,464.75,256,464.75z M246,147.093v26.408c0,5.523,4.477,10,10,10c5.523,0,10-4.477,10-10   v-26.408c77.513,5.163,139,69.859,139,148.657s-61.487,143.494-139,148.657v-26.408c0-5.523-4.477-10-10-10   c-5.523,0-10,4.477-10,10v26.408c-74.206-4.943-133.714-64.451-138.657-138.657h26.408c5.523,0,10-4.477,10-10   c0-5.522-4.477-10-10-10h-26.408C112.286,211.544,171.794,152.036,246,147.093z"/>
	<path style="fill-rule:evenodd;clip-rule:evenodd;" d="M256,336.875c19.228,0,35.411-13.267,39.89-31.125h75.61   c5.523,0,10-4.477,10-10c0-5.522-4.477-10-10-10h-75.61c-4.479-17.858-20.662-31.125-39.89-31.125   c-22.676,0-41.125,18.449-41.125,41.125C214.875,318.427,233.324,336.875,256,336.875z M256,274.625   c11.648,0,21.125,9.477,21.125,21.125s-9.477,21.125-21.125,21.125s-21.125-9.477-21.125-21.125S244.352,274.625,256,274.625z"/>
	<path style="fill-rule:evenodd;clip-rule:evenodd;" d="M111.308,432.729c-5.508,0-10,4.492-10,10c0,5.508,4.492,10,10,10   c5.508,0,10-4.492,10-10C121.308,437.222,116.815,432.729,111.308,432.729z"/>
</g>















</svg>
