<?xml version="1.0" encoding="iso-8859-1"?>
<!-- Generator: Adobe Illustrator 19.0.0, SVG Export Plug-In . SVG Version: 6.00 Build 0)  -->
<svg version="1.1" id="Capa_1" xmlns="http://www.w3.org/2000/svg" xmlns:xlink="http://www.w3.org/1999/xlink" x="0px" y="0px"
	 viewBox="0 0 512 512" style="enable-background:new 0 0 512 512;" xml:space="preserve">
<path style="fill:#EE584F;" d="M328.172,223.036c-24.539,0-26.492-37.636-26.645-42.678H195.951
	c0.235,8.258,2.584,107.539-20.556,107.539c-26.308,0-26.208-47.564-52.251-47.564c-27.206,0-32.584-53.914-33.104-59.975H33.405
	v145.9c0,131.356,88.256,165.231,183.693,165.231c105.312,0,183.694-31.713,183.694-165.231v-145.9h-43.815
	C356.735,185.4,354.061,223.036,328.172,223.036z"/>
<path style="fill:#5EA69B;" d="M400.793,202.516v46.055c36.939,0,56.262,19.327,56.262,52.584c0,24.509-26.566,59.222-59.799,70.311
	c-3.334,19.483-8.963,35.997-16.58,49.96c0.344,0.003,0.684,0.017,1.026,0.017c54.497,0,120.298-65.795,120.298-120.288
	C502,246.66,458.481,202.516,400.793,202.516z"/>
<g>
	<polygon style="fill:#EEEEEE;" points="202.078,99.578 239.094,86.751 245.148,28.039 171.594,20.514 165.445,80.589 
		192.16,71.243 	"/>
	<polygon style="fill:#EEEEEE;" points="361.338,75.567 290.236,99.986 303.031,136.556 382.678,136.556 	"/>
	<polygon style="fill:#EEEEEE;" points="192.16,71.243 125.508,94.564 148.018,105.405 133.016,136.556 215.014,136.556 	"/>
	<polygon style="fill:#EEEEEE;" points="81.403,73.323 50.949,136.556 133.016,136.556 148.018,105.405 	"/>
	<polygon style="fill:#EEEEEE;" points="280.632,72.381 202.078,99.578 215.016,136.556 303.086,136.556 	"/>
</g>
<path style="fill:#9B4C14;" d="M424.023,159.007c0,11.481-8.639,20.789-23.297,20.789H357c0,0-1.08,43.239-28.828,43.239
	c-26.301,0-26.657-43.239-26.657-43.239h-105.58c0,0,3.604,108.101-20.539,108.101c-26.308,0-26.208-47.564-52.251-47.564
	c-28.826,0-33.148-60.536-33.148-60.536h-56.7c-14.656,0-23.297-9.308-23.297-20.789v-1.663c0-11.48,8.641-20.788,23.297-20.788
	h367.43c14.658,0,23.297,9.308,23.297,20.788L424.023,159.007L424.023,159.007z"/>
<path d="M512,301.155c0-57.622-43.705-103.423-101.207-108.215v-4.414c13.909-3.669,23.23-14.964,23.23-29.518v-1.663
	c0-17.84-14.003-30.788-33.297-30.788h-10.954l-18.996-54.292c-0.875-2.503-2.71-4.556-5.1-5.707
	c-2.389-1.15-5.139-1.305-7.642-0.429l-60.395,21.132l-6.493-18.559c-0.976-2.789-3.018-5.075-5.681-6.357
	c-2.66-1.281-5.723-1.453-8.511-0.477l-26.151,9.15l4.293-41.962c0.561-5.494-3.437-10.403-8.931-10.966l-73.554-7.525
	c-5.494-0.561-10.403,3.438-10.966,8.931l-5.501,53.753l-30.029,10.508L85.742,64.313c-4.975-2.396-10.952-0.305-13.349,4.671
	l-27.728,57.572H33.297C14.003,126.556,0,139.504,0,157.344v1.663c0,14.615,9.4,25.941,23.405,29.561v137.689
	c0,63.638,20.237,110.721,60.15,139.943c31.982,23.415,76.912,35.288,133.543,35.288c62.335,0,105.978-10.979,137.347-34.552
	c13.022-9.786,23.746-21.639,32.214-35.666c27.018-1.726,57.548-17.318,82.699-42.466C496.06,362.107,512,329.34,512,301.155z
	 M410.793,259.152c24.067,2.917,36.262,17.004,36.262,42.003c0,15.958-15.76,39.86-37.511,53.43
	c0.828-9.001,1.249-18.435,1.249-28.327V259.152z M304.288,106.122l50.913-17.814l13.383,38.248h-57.196l-7.14-20.404
	C304.27,106.136,304.288,106.122,304.288,106.122z M273.797,86.572l13.99,39.984h-65.679l-6.832-19.525L273.797,86.572z
	 M180.523,31.48l53.658,5.49l-4.229,41.344l-22.026,7.707l-6.327-18.081c-1.823-5.213-7.526-7.962-12.741-6.136l-11.862,4.15
	L180.523,31.48z M152.356,96.395l-0.759-0.365l34.426-12.046l14.896,42.572h-51.988l8.096-16.813
	C159.424,104.768,157.332,98.791,152.356,96.395z M86.074,86.671l48.595,23.404l-7.937,16.481H66.865L86.074,86.671z M20,159.007
	v-1.663c0-6.654,5.095-10.788,13.297-10.788h367.43c8.202,0,13.297,4.134,13.297,10.788v1.663c0,6.655-5.095,10.789-13.297,10.789
	H357c-5.409,0-9.839,4.322-9.996,9.729c-0.01,0.335-1.463,33.51-18.832,33.51c-15.56,0-16.653-33.007-16.657-33.321
	c-0.046-5.491-4.51-9.918-10-9.918h-105.58c-2.71,0-5.304,1.1-7.188,3.048c-1.884,1.947-2.896,4.576-2.807,7.284
	c0.007,0.231,0.747,23.367-0.815,47.656c-2.546,39.587-8.979,48.545-10.436,50.088c-6.137-0.421-10.092-6.421-16.799-18.655
	c-7.055-12.869-15.835-28.885-34.745-28.885c-14.54,0-22.002-35.199-23.174-51.248c-0.374-5.233-4.729-9.288-9.975-9.288H33.297
	C25.095,169.796,20,165.662,20,159.007z M342.43,450.948c-27.727,20.837-67.552,30.541-125.331,30.541
	c-52.292,0-93.247-10.573-121.729-31.426c-34.481-25.245-51.965-66.899-51.965-123.806V189.796h37.636
	c2.739,19.429,12.083,60.536,42.104,60.536c6.591,0,10.898,6.989,17.208,18.499c7.099,12.949,15.934,29.065,35.043,29.065
	c3.537,0,8.777-1.058,13.652-6.098c5.667-5.859,13.512-19.021,16.204-65.487c0.83-14.31,0.927-27.731,0.86-36.516h86.191
	c0.558,4.242,1.509,9.407,3.132,14.602c7.783,24.917,23.852,28.638,32.736,28.638c15.776,0,27.947-10.068,34.271-28.352
	c1.835-5.305,2.934-10.584,3.59-14.888h24.761v136.461C390.793,385.705,374.974,426.493,342.43,450.948z M397.298,409.525
	c3.698-9.461,6.63-19.686,8.802-30.697c33.072-13.709,60.955-48.657,60.955-77.673c0-19.277-6.012-35.188-17.386-46.008
	c-9.647-9.179-22.693-14.581-38.876-16.118V213.02C457.065,217.715,492,254.74,492,301.155c0,22.997-13.751,50.477-36.783,73.508
	C437.207,392.669,416.478,405.001,397.298,409.525z"/>
<path d="M158.88,421.952c-1-0.33-2.04-0.49-3.09-0.49c-4.34,0-8.16,2.78-9.51,6.91c-0.82,2.54-0.61,5.25,0.609,7.63
	c1.21,2.38,3.271,4.14,5.811,4.97h0.01c1,0.33,2.04,0.49,3.09,0.49c4.34,0,8.17-2.78,9.51-6.91c0.82-2.54,0.61-5.25-0.6-7.63
	C163.49,424.531,161.42,422.771,158.88,421.952z"/>
<path d="M102.58,360.731c-4.851-16.76-5.86-33.43-5.851-44.46c0-6.6,0.351-12.029,0.65-15.42c0.17-1.96,0.33-3.38,0.439-4.22
	c0.051-0.43,0.101-0.8,0.131-1.05c0.04-0.221,0.04-0.261,0.04-0.261c0.409-2.64-0.24-5.29-1.82-7.439
	c-1.58-2.15-3.9-3.561-6.54-3.97c-2.86-0.431-5.811,0.399-8,2.27c-1.83,1.56-3.03,3.72-3.4,6.09c0,0,0,0-0.01,0.01v0.04
	c-0.25,1.691-1.49,10.78-1.49,23.95c0.011,17.931,2.24,34.75,6.63,50c6.271,21.73,16.79,39.51,31.29,52.84
	c1.851,1.69,4.25,2.631,6.761,2.631c2.8,0,5.479-1.181,7.37-3.23c1.809-1.97,2.739-4.52,2.63-7.191
	c-0.11-2.67-1.261-5.14-3.23-6.939C116.439,393.591,107.819,378.901,102.58,360.731z"/>
<g>
</g>
<g>
</g>
<g>
</g>
<g>
</g>
<g>
</g>
<g>
</g>
<g>
</g>
<g>
</g>
<g>
</g>
<g>
</g>
<g>
</g>
<g>
</g>
<g>
</g>
<g>
</g>
<g>
</g>
</svg>
