<svg id="Capa_1" enable-background="new 0 0 512 512" height="512" viewBox="0 0 512 512" width="512" xmlns="http://www.w3.org/2000/svg"><g><g><path d="m108.1 231.56v240.373c0 16.606 13.462 30.067 30.067 30.067h235.666c16.605 0 30.067-13.461 30.067-30.067v-240.373" fill="#faf7f5"/><path d="m373.833 10h-235.666c-16.605 0-30.067 13.461-30.067 30.067v143.815h295.8v-143.815c0-16.606-13.461-30.067-30.067-30.067z" fill="#e2e9ee"/><path d="m108.1 231.56v-47.678h295.801v47.678" fill="#ccf5fc"/><g><path d="m268.792 294.242h-25.582c-8.461 0-15.319 6.859-15.319 15.319v23.489h56.221v-23.489c-.001-8.461-6.86-15.319-15.32-15.319z" fill="#a7bdcd"/><g><path d="m227.89 333.05v22.298c0 8.461 6.859 15.319 15.319 15.319h25.582c8.461 0 15.319-6.859 15.319-15.319v-22.298z" fill="#dae6e6"/></g></g><g><path d="m308.388 57.52h42.74v42.74h-42.74z" fill="#fff2a0" transform="matrix(.707 .707 -.707 .707 152.367 -210.068)"/></g><g><path d="m227.89 115.696c0-11.802 9.568-21.37 21.37-21.37 11.802 0 21.37 9.568 21.37 21.37 0 11.802-9.568 21.37-21.37 21.37-11.802 0-21.37-9.567-21.37-21.37z" fill="#ffad95"/></g></g><g><g><path d="m413.9 40.067c0-22.093-17.974-40.067-40.067-40.067h-235.666c-22.092 0-40.067 17.974-40.067 40.067v431.866c0 22.093 17.975 40.067 40.067 40.067h235.666c22.093 0 40.066-17.974 40.066-40.067v-431.866zm-295.8 0c0-11.065 9.002-20.067 20.067-20.067h235.666c11.064 0 20.066 9.002 20.066 20.067v133.815h-275.799zm255.733 451.933h-235.666c-11.065 0-20.067-9.002-20.067-20.067v-230.372h97.694c5.522 0 10-4.477 10-10s-4.478-10-10-10h-97.694v-27.679h275.801v27.679h-87.694c-5.522 0-10 4.477-10 10s4.478 10 10 10h87.693v230.373c0 11.064-9.002 20.066-20.067 20.066z"/><path d="m268.792 284.242h-25.582c-13.961 0-25.319 11.358-25.319 25.319v45.787c0 13.961 11.358 25.319 25.319 25.319h25.582c13.961 0 25.319-11.358 25.319-25.319v-45.787c0-13.961-11.359-25.319-25.319-25.319zm-30.902 25.319c0-2.933 2.387-5.319 5.319-5.319h25.582c2.933 0 5.319 2.386 5.319 5.319v13.489h-36.22zm36.221 45.787c0 2.933-2.387 5.319-5.319 5.319h-25.582c-2.933 0-5.319-2.386-5.319-5.319v-12.298h36.221v12.298z"/></g><g><path d="m261.18 241.56c-4.241 0-8.095-2.783-9.46-6.789-1.323-3.882-.068-8.338 3.116-10.938 3.28-2.678 8.022-2.992 11.62-.758 3.494 2.169 5.347 6.395 4.534 10.436-.928 4.615-5.095 8.049-9.81 8.049z"/></g><path d="m249.26 147.066c-17.298 0-31.37-14.073-31.37-31.37s14.072-31.37 31.37-31.37c17.297 0 31.369 14.072 31.369 31.37s-14.072 31.37-31.369 31.37zm0-42.739c-6.27 0-11.37 5.101-11.37 11.37 0 6.27 5.101 11.37 11.37 11.37s11.369-5.101 11.369-11.37c0-6.27-5.1-11.37-11.369-11.37z"/><path d="m329.757 119.111c-2.652 0-5.196-1.054-7.071-2.929l-30.221-30.222c-3.905-3.905-3.905-10.237 0-14.142l30.221-30.221c1.876-1.875 4.419-2.929 7.071-2.929s5.195 1.054 7.071 2.929l30.222 30.221c1.875 1.875 2.929 4.419 2.929 7.071s-1.054 5.196-2.929 7.071l-30.222 30.222c-1.875 1.876-4.418 2.929-7.071 2.929zm-16.079-40.221 16.079 16.08 16.079-16.08-16.079-16.079z"/><g><path d="m169.107 139.366h-12.894c-5.522 0-10-4.477-10-10v-65.787c0-5.523 4.478-10 10-10h12.894c5.522 0 10 4.477 10 10s-4.478 10-10 10h-2.894v45.788h2.894c5.522 0 10 4.477 10 10s-4.478 9.999-10 9.999z"/></g><g><path d="m169.107 394.242h-12.894c-5.522 0-10-4.477-10-10v-93.575c0-5.523 4.478-10 10-10h12.894c5.522 0 10 4.477 10 10s-4.478 10-10 10h-2.894v73.575h2.894c5.522 0 10 4.477 10 10s-4.478 10-10 10z"/></g></g></g></svg>