<svg id="Capa_1" enable-background="new 0 0 512 512" height="512" viewBox="0 0 512 512" width="512" xmlns="http://www.w3.org/2000/svg"><path d="m400.429 502h-288.858c-20.926 0-37.891-16.907-37.891-37.763v-293.987c0-14.186 3.64-28.135 10.573-40.512l32.194-57.475h279.106l32.194 57.475c6.933 12.377 10.573 26.326 10.573 40.512v293.987c0 20.856-16.965 37.763-37.891 37.763z" fill="#faf7f5"/><path d="m87.027 10h337.945v62.264h-337.945z" fill="#f5c6af"/><path d="m117.68 398.596h276.639v59.404h-276.639z" fill="#ffbecb"/><path d="m394.32 198.365v-28.115c0-6.642-1.715-13.215-4.961-19.009l-19.592-34.978h-227.533l-19.592 34.977c-3.246 5.795-4.961 12.368-4.961 19.01v28.116" fill="#ffbecb"/><path d="m297.052 303.672c0 22.672-18.38 51.074-41.052 51.074s-41.052-28.401-41.052-51.074c0-22.672 18.38-41.052 41.052-41.052s41.052 18.38 41.052 41.052z" fill="#ff9eb1"/><path d="m320.142 280.417s-22.86 17.211-40.572 10.551c-17.713-6.659-23.57-34.668-23.57-34.668s22.86-17.211 40.572-10.551c17.712 6.659 23.57 34.668 23.57 34.668z" fill="#99ebfa"/><path d="m191.858 280.417s22.86 17.211 40.572 10.551c17.713-6.659 23.57-34.668 23.57-34.668s-22.86-17.211-40.572-10.551c-17.712 6.659-23.57 34.668-23.57 34.668z" fill="#99ebfa"/><path d="m436.471 124.852-23.855-42.588h12.357c5.523 0 10-4.478 10-10v-62.264c0-5.523-4.477-10-10-10h-337.946c-5.523 0-10 4.477-10 10v62.264c0 5.522 4.477 10 10 10h12.357l-23.855 42.588c-7.752 13.838-11.849 29.537-11.849 45.398v293.987c0 26.337 21.484 47.763 47.891 47.763h288.858c26.407 0 47.891-21.426 47.891-47.763v-293.987c0-15.861-4.097-31.56-11.849-45.398zm-339.444-104.852h317.945v42.264h-26.807v-13.931c0-5.522-4.477-10-10-10s-10 4.478-10 10v13.931h-41.083v-13.931c0-5.522-4.477-10-10-10s-10 4.478-10 10v13.931h-41.082v-13.931c0-5.522-4.477-10-10-10s-10 4.478-10 10v13.931h-41.083v-13.931c0-5.522-4.477-10-10-10s-10 4.478-10 10v13.931h-41.083v-13.931c0-5.522-4.477-10-10-10s-10 4.478-10 10v13.931h-26.807zm331.293 444.237c0 15.309-12.512 27.763-27.891 27.763h-288.858c-15.379 0-27.891-12.454-27.891-27.763v-293.987c0-12.446 3.215-24.766 9.298-35.625l29.33-52.361h267.385l29.33 52.361c6.082 10.859 9.298 23.179 9.298 35.625v293.987z"/><path d="m378.491 111.377c-1.769-3.158-5.105-5.113-8.725-5.113h-227.533c-3.619 0-6.956 1.955-8.725 5.113l-19.592 34.977c-4.08 7.285-6.237 15.548-6.237 23.896v287.75c0 5.522 4.477 10 10 10h276.64c5.523 0 10-4.478 10-10v-287.75c0-8.349-2.157-16.612-6.237-23.895zm-247.125 44.75 16.728-29.863h215.813l16.727 29.864c2.412 4.305 3.686 9.189 3.686 14.122v218.347h-256.64v-180.232h166.032c5.523 0 10-4.478 10-10s-4.477-10-10-10h-166.032v-18.115c0-4.934 1.275-9.817 3.686-14.123zm252.954 291.873h-256.64v-39.403h256.64z"/><path d="m255.999 244.308c-9.319-5.607-27.508-14.15-44.09-7.919-22.215 8.352-29.124 38.563-29.838 41.981-.793 3.794.677 7.704 3.773 10.036 1.471 1.107 9.144 6.683 19.327 10.484-.148 1.587-.223 3.183-.223 4.783 0 28.243 22.301 61.073 51.052 61.073s51.052-32.83 51.052-61.073c0-1.599-.075-3.196-.223-4.783 10.183-3.8 17.857-9.377 19.327-10.483 3.097-2.332 4.567-6.242 3.773-10.036-.714-3.418-7.623-33.629-29.838-41.981-16.583-6.238-34.774 2.309-44.092 7.918zm-37.052 10.801c7.542-2.838 18.349 1.625 25.38 5.578-2.688 7.615-7.875 18.085-15.417 20.921-7.55 2.84-18.364-1.632-25.402-5.593 2.66-7.597 7.825-18.043 15.439-20.906zm37.053 89.637c-15.994 0-31.052-23.139-31.052-41.073 0-.397.008-.794.023-1.19 3.663-.137 7.36-.794 10.978-2.154 8.988-3.38 15.47-10.337 20.05-17.65 4.581 7.313 11.063 14.271 20.051 17.65 3.619 1.361 7.314 2.017 10.978 2.154.015.396.023.793.023 1.19.001 17.934-15.057 41.073-31.051 41.073zm27.089-63.138c-7.553-2.84-12.744-13.335-15.426-20.943 7.006-3.963 17.774-8.418 25.39-5.556 7.549 2.838 12.739 13.326 15.424 20.943-7.006 3.964-17.775 8.418-25.388 5.556z"/><path d="m339.1 208.359c-4.242 0-8.094-2.766-9.46-6.779-1.29-3.79-.14-8.086 2.867-10.731 3.266-2.874 8.179-3.269 11.87-.975 3.438 2.137 5.294 6.298 4.563 10.283-.863 4.696-5.069 8.202-9.84 8.202z"/></svg>