<svg id="Capa_1" enable-background="new 0 0 512 512" height="512" viewBox="0 0 512 512" width="512" xmlns="http://www.w3.org/2000/svg"><g><g><g><path d="m377.596 426.208h90.896c18.506 0 33.508-15.002 33.508-33.508v-273.4c0-18.506-15.002-33.508-33.508-33.508h-90.896" fill="#ccf5fc"/><path d="m377.596 85.792h-334.088c-18.506 0-33.508 15.002-33.508 33.508v273.4c0 18.506 15.002 33.508 33.508 33.508h334.087" fill="#a7bdcd"/><path d="m60 359.051v-206.102c0-9.476 7.682-17.157 17.157-17.157h233.281c9.476 0 17.157 7.682 17.157 17.157v206.102c0 9.476-7.682 17.157-17.157 17.157h-233.281c-9.475 0-17.157-7.682-17.157-17.157z" fill="#faf7f5"/></g><g><g><path d="m419.035 198.089h41.525v45.787h-41.525z" fill="#fff7bf"/><path d="m419.035 152.303h41.525v45.787h-41.525z" fill="#ff7b79"/></g><g><circle cx="439.798" cy="299.952" fill="#faf7f5" r="20.763"/></g></g><path d="m282.223 376.208h-176.851v-24.043c0-11.736 9.514-21.25 21.25-21.25h134.351c11.736 0 21.25 9.514 21.25 21.25z" fill="#fff7bf"/><g fill="#ffad95"><path d="m377.596 422.164v-111.371"/><path d="m377.596 220.381v-131.589"/></g></g><g><g><g><g><path d="m468.492 75.792h-424.984c-23.99 0-43.508 19.518-43.508 43.508v273.4c0 23.99 19.518 43.508 43.508 43.508h424.983c23.991 0 43.508-19.518 43.508-43.508v-273.4c.001-23.99-19.517-43.508-43.507-43.508zm23.508 316.908c0 12.962-10.546 23.508-23.508 23.508h-80.896v-105.415c0-5.522-4.477-10-10-10s-10 4.478-10 10v105.415h-324.088c-12.962 0-23.508-10.546-23.508-23.508v-273.4c0-12.962 10.546-23.508 23.508-23.508h324.087v124.589c0 5.522 4.477 10 10 10s10-4.478 10-10v-124.589h80.896c12.962 0 23.508 10.546 23.508 23.508v273.4z"/><path d="m310.438 125.792h-233.281c-14.974 0-27.157 12.183-27.157 27.157v206.102c0 14.975 12.183 27.157 27.157 27.157h233.281c14.975 0 27.157-12.183 27.157-27.157v-206.102c.001-14.974-12.182-27.157-27.157-27.157zm-195.065 240.416v-14.043c0-6.203 5.046-11.25 11.25-11.25h134.352c6.203 0 11.25 5.047 11.25 11.25v14.043zm202.223-7.157c0 3.946-3.211 7.157-7.157 7.157h-18.215v-14.043c0-17.231-14.019-31.25-31.25-31.25h-134.352c-17.231 0-31.25 14.019-31.25 31.25v14.043h-18.215c-3.946 0-7.157-3.211-7.157-7.157v-206.102c0-3.946 3.211-7.157 7.157-7.157h233.281c3.946 0 7.157 3.211 7.157 7.157v206.102z"/><path d="m460.561 142.303h-41.525c-5.523 0-10 4.478-10 10v91.573c0 5.522 4.477 10 10 10h41.525c5.523 0 10-4.478 10-10v-91.573c0-5.523-4.478-10-10-10zm-31.526 20h21.525v25.787h-21.525zm21.526 71.573h-21.525v-25.786h21.525z"/></g></g><g><path d="m377.6 275.77c-4.115 0-7.902-2.622-9.351-6.468-1.428-3.791-.391-8.222 2.632-10.938 3.217-2.89 7.954-3.367 11.71-1.25 3.573 2.014 5.548 6.252 4.87 10.284-.802 4.759-5.022 8.372-9.861 8.372z"/></g></g><g><g><path d="m108.987 231.903c-2.56 0-5.118-.977-7.071-2.929-3.905-3.905-3.905-10.237 0-14.143l32.681-32.681c3.905-3.904 10.237-3.903 14.142 0 3.905 3.905 3.905 10.237 0 14.143l-32.681 32.681c-1.952 1.953-4.512 2.929-7.071 2.929z"/></g><g><path d="m125.583 268.839c-2.559 0-5.119-.977-7.071-2.929-3.905-3.905-3.905-10.237 0-14.143l60.766-60.766c3.905-3.904 10.237-3.904 14.143 0 3.905 3.905 3.905 10.237 0 14.143l-60.766 60.766c-1.953 1.952-4.512 2.929-7.072 2.929z"/></g></g><g><path d="m460.561 369.697h-41.525c-5.523 0-10-4.478-10-10s4.477-10 10-10h41.525c5.523 0 10 4.478 10 10s-4.478 10-10 10z"/></g><path d="m439.798 330.715c-16.962 0-30.763-13.8-30.763-30.763s13.8-30.763 30.763-30.763 30.763 13.8 30.763 30.763-13.801 30.763-30.763 30.763zm0-41.526c-5.935 0-10.763 4.828-10.763 10.763s4.828 10.763 10.763 10.763 10.763-4.828 10.763-10.763-4.829-10.763-10.763-10.763z"/></g></g></svg>