<svg id="Capa_1" enable-background="new 0 0 512 512" height="512" viewBox="0 0 512 512" width="512" xmlns="http://www.w3.org/2000/svg"><g><g><path d="m316.745 199.543h108.946v-82.476c20.118-3.913 35.306-21.646 35.306-42.931 0-24.155-19.559-43.736-43.686-43.736h-87.256" fill="#fff2a0"/><path d="m397.936 481.601h104.064v-233.853c0-26.623-21.582-48.206-48.206-48.206h-89.788" fill="#faf7f5"/><path d="m412.185 419.431v-171.655c0-26.638-21.57-48.233-48.178-48.233h-305.829c-26.608 0-48.178 21.594-48.178 48.233v171.655" fill="#e2e9ee"/><path d="m86.309 117.067v82.476h252.126v-82.476c20.118-3.913 35.306-21.646 35.306-42.931 0-24.155-19.559-43.736-43.686-43.736h-235.365c-24.127 0-43.686 19.581-43.686 43.736-.001 21.284 15.187 39.017 35.305 42.931z" fill="#fff7bf"/><path d="m10 419.431v62.17h402.185v-62.17" fill="#ff9171"/><path d="m481.357 352.892h-48.528c-11.401 0-20.643-9.242-20.643-20.644v-12.451c0-11.401 9.242-20.643 20.643-20.643h48.528c11.401 0 20.643 9.242 20.643 20.643v12.451c0 11.402-9.242 20.644-20.643 20.644z" fill="#ff7b79"/><g><g><ellipse cx="336.363" cy="278.03" fill="#fff2a0" rx="19.5" ry="19.522"/></g><g><ellipse cx="336.363" cy="353.482" fill="#ff7b79" rx="19.5" ry="19.522"/></g></g></g><g><path d="m453.794 189.542h-18.104v-64.904c20.875-7.607 35.306-27.676 35.306-50.503 0-29.63-24.083-53.736-53.687-53.736h-322.619c-29.603 0-53.687 24.106-53.687 53.736 0 22.827 14.43 42.896 35.306 50.502v64.905h-18.131c-32.079 0-58.178 26.124-58.178 58.233v233.825c0 5.523 4.477 10 10 10h492c5.523 0 10-4.477 10-10v-233.852c0-32.095-26.111-58.206-58.206-58.206zm38.206 58.206v43.313c-3.317-1.232-6.903-1.907-10.644-1.907h-14.264v-8.35c0-5.523-4.477-10-10-10s-10 4.477-10 10v8.35h-14.264c-3.741 0-7.327.674-10.644 1.907v-43.286c0-14.619-5.41-27.996-14.33-38.233h45.94c21.067 0 38.206 17.14 38.206 38.206zm0 84.501c0 5.869-4.775 10.644-10.644 10.644h-48.528c-5.869 0-10.644-4.775-10.644-10.644v-12.451c0-5.869 4.775-10.644 10.644-10.644h48.528c5.869 0 10.644 4.775 10.644 10.644zm-41.003-258.114c0 16.121-11.445 30.048-27.215 33.115-4.699.914-8.091 5.029-8.091 9.816v72.476h-67.256v-64.904c20.875-7.607 35.306-27.676 35.306-50.503 0-12.766-4.471-24.507-11.928-33.736h45.497c18.575 0 33.687 15.134 33.687 33.736zm-354.688 52.957h159.83c5.523 0 10-4.477 10-10s-4.477-10-10-10h-168.686c-15.373-3.362-26.45-17.098-26.45-32.957 0-18.602 15.112-33.736 33.687-33.736h235.364c18.575 0 33.687 15.134 33.687 33.736 0 16.121-11.446 30.048-27.215 33.115-4.699.914-8.091 5.029-8.091 9.816v72.476h-232.126zm-76.309 344.509v-42.17h151.845c5.523 0 10-4.477 10-10s-4.477-10-10-10h-151.845v-161.656c0-21.082 17.126-38.233 38.178-38.233h305.828c21.052 0 38.179 17.151 38.179 38.233v161.655h-139.928c-5.523 0-10 4.477-10 10s4.477 10 10 10h139.928v42.17h-382.185zm402.185 0v-110.616c3.317 1.232 6.903 1.907 10.644 1.907h14.264v41.116c0 5.523 4.477 10 10 10s10-4.477 10-10v-41.116h14.264c3.741 0 7.327-.674 10.644-1.907v110.615h-69.816z"/><g><path d="m217.23 429.43c-4.228 0-8.108-2.784-9.46-6.786-1.314-3.89-.075-8.338 3.12-10.941 3.291-2.681 8.012-2.986 11.623-.758 3.495 2.156 5.337 6.409 4.528 10.436-.929 4.616-5.093 8.049-9.811 8.049z"/></g><path d="m336.363 383.004c-16.266 0-29.5-13.244-29.5-29.522s13.234-29.522 29.5-29.522 29.5 13.244 29.5 29.522-13.234 29.522-29.5 29.522zm0-39.044c-5.238 0-9.5 4.271-9.5 9.522s4.262 9.522 9.5 9.522 9.5-4.271 9.5-9.522-4.262-9.522-9.5-9.522z"/><path d="m336.363 307.552c-16.266 0-29.5-13.244-29.5-29.522s13.234-29.522 29.5-29.522 29.5 13.244 29.5 29.522-13.234 29.522-29.5 29.522zm0-39.044c-5.238 0-9.5 4.271-9.5 9.522s4.262 9.522 9.5 9.522 9.5-4.271 9.5-9.522-4.262-9.522-9.5-9.522z"/></g></g></svg>